<?xml version="1.0" encoding="utf-8"?>
<!-- Generator: Adobe Illustrator 28.2.0, SVG Export Plug-In . SVG Version: 6.00 Build 0)  -->
<svg version="1.1" xmlns="http://www.w3.org/2000/svg" xmlns:xlink="http://www.w3.org/1999/xlink" x="0px" y="0px"
	 viewBox="0 0 880 800" style="enable-background:new 0 0 880 800;" xml:space="preserve">
<style type="text/css">
	.st0{fill:#B0DFEA;}
	.st1{fill:#DFF2F7;}
	.st2{fill:#E4DC7C;}
	.st3{fill:#11A2B3;}
	.st4{fill:#FFFFFF;}
	.st5{fill:none;stroke:#FFFFFF;stroke-width:7;stroke-miterlimit:10;}
	.st6{fill:none;stroke:#FFFFFF;stroke-width:5;stroke-miterlimit:10;}
	.st7{fill:none;stroke:#363C63;stroke-width:3;stroke-miterlimit:10;}
	.st8{fill:#363C63;}
	.st9{fill:none;stroke:#9FA0A0;stroke-width:5;stroke-miterlimit:10;}
	.st10{fill:none;stroke:#FFFFFF;stroke-width:3;stroke-miterlimit:10;}
	.st11{fill:none;stroke:#FFFFFF;stroke-width:3;stroke-miterlimit:10;stroke-dasharray:7.8429,7.8429;}
	.st12{fill:#9FA0A0;}
	.st13{fill:none;stroke:#FFFFFF;stroke-width:3;stroke-linecap:round;stroke-linejoin:round;stroke-miterlimit:10;}
	.st14{fill:#4081B3;}
	.st15{fill:#FFFFFF;stroke:#FFFFFF;stroke-width:3;stroke-linecap:round;stroke-linejoin:round;stroke-miterlimit:10;}
	.st16{fill:#B5B5B6;}
	.st17{fill:#DCDDDD;}
	.st18{fill:#D4E9F1;}
	.st19{fill:#6190BA;}
	.st20{fill:#7FB9E5;}
	.st21{fill:#D46A82;}
	.st22{fill:#B0DCD5;}
	.st23{fill:#9DC1BA;}
	.st24{fill:#D4E9F1;stroke:#DCDDDD;stroke-width:0.5;stroke-miterlimit:10;}
	.st25{fill:#5781A0;}
	.st26{fill:#F9FEFF;}
	.st27{fill:#C68E52;}
	.st28{fill:#6F9395;}
	.st29{fill:#E8E3DA;}
	.st30{fill:#CA454F;}
	.st31{fill:#AA7748;}
	.st32{fill:#534741;}
	.st33{fill:#EE87B4;}
	.st34{fill:none;stroke:#EE87B4;stroke-width:3;stroke-linecap:round;stroke-linejoin:round;stroke-miterlimit:10;}
	.st35{fill:#0097E0;}
	.st36{fill:none;stroke:#0097E0;stroke-width:3;stroke-linecap:round;stroke-linejoin:round;stroke-miterlimit:10;}
	.st37{fill:#54C3F1;}
	.st38{fill:none;stroke:#54C3F1;stroke-width:3;stroke-linecap:round;stroke-linejoin:round;stroke-miterlimit:10;}
	.st39{fill:none;stroke:#534741;stroke-miterlimit:10;}
	.st40{fill:#0071BC;}
</style>
<g id="海">
	<rect x="-34.2" y="-31.4" class="st0" width="948.4" height="862.9"/>
</g>
<g id="波">
	<g>
		<path class="st1" d="M250.2,72c-0.3,0-0.6,0-0.9,0c-7.4-0.4-13.7-5.3-16-12c-2.4,7-9.1,12-16.9,12c0,0,10.6,4.3,16.8-5.4
			c0,0,5.1,6.9,13.7,6.2L250.2,72z"/>
		<path class="st1" d="M375.3,219.1c-0.3,0-0.6,0-0.9,0c-7.4-0.4-13.7-5.3-16-12c-2.4,7-9.1,12-16.9,12c0,0,10.6,4.3,16.8-5.4
			c0,0,5.1,6.9,13.7,6.2L375.3,219.1z"/>
		<path class="st1" d="M444.5,336.3c-0.3,0-0.6,0-0.9,0c-7.4-0.4-13.7-5.3-16-12c-2.4,7-9.1,12-16.9,12c0,0,10.6,4.3,16.8-5.4
			c0,0,5.1,6.9,13.7,6.2L444.5,336.3z"/>
		<path class="st1" d="M414.9,371.8c-0.3,0-0.6,0-0.9,0c-7.4-0.4-13.7-5.3-16-12c-2.4,7-9.1,12-16.9,12c0,0,10.6,4.3,16.8-5.4
			c0,0,5.1,6.9,13.7,6.2L414.9,371.8z"/>
		<path class="st1" d="M494.2,362.5c-0.3,0-0.6,0-0.9,0c-7.4-0.4-13.7-5.3-16-12c-2.4,7-9.1,12-16.9,12c0,0,10.6,4.3,16.8-5.4
			c0,0,5.1,6.9,13.7,6.2L494.2,362.5z"/>
		<path class="st1" d="M572.7,419c-0.3,0-0.6,0-0.9,0c-7.4-0.4-13.7-5.3-16-12c-2.4,7-9.1,12-16.9,12c0,0,10.6,4.3,16.8-5.4
			c0,0,5.1,6.9,13.7,6.2L572.7,419z"/>
		<path class="st1" d="M608.1,457.8c-0.3,0-0.6,0-0.9,0c-7.4-0.4-13.7-5.3-16-12c-2.4,7-9.1,12-16.9,12c0,0,10.6,4.3,16.8-5.4
			c0,0,5.1,6.9,13.7,6.2L608.1,457.8z"/>
		<path class="st1" d="M733.9,404.7c-0.3,0-0.6,0-0.9,0c-7.4-0.4-13.7-5.3-16-12c-2.4,7-9.1,12-16.9,12c0,0,10.6,4.3,16.8-5.4
			c0,0,5.1,6.9,13.7,6.2L733.9,404.7z"/>
		<path class="st1" d="M765.9,361.7c-0.3,0-0.6,0-0.9,0c-7.4-0.4-13.7-5.3-16-12c-2.4,7-9.1,12-16.9,12c0,0,10.6,4.3,16.8-5.4
			c0,0,5.1,6.9,13.7,6.2L765.9,361.7z"/>
		<path class="st1" d="M829.2,399.6c-0.3,0-0.6,0-0.9,0c-7.4-0.4-13.7-5.3-16-12c-2.4,7-9.1,12-16.9,12c0,0,10.6,4.3,16.8-5.4
			c0,0,5.1,6.9,13.7,6.2L829.2,399.6z"/>
		<path class="st1" d="M814,267.2c-0.3,0-0.6,0-0.9,0c-7.4-0.4-13.7-5.3-16-12c-2.4,7-9.1,12-16.9,12c0,0,10.6,4.3,16.8-5.4
			c0,0,5.1,6.9,13.7,6.2L814,267.2z"/>
		<path class="st1" d="M711.9,285.7c-0.3,0-0.6,0-0.9,0c-7.4-0.4-13.7-5.3-16-12c-2.4,7-9.1,12-16.9,12c0,0,10.6,4.3,16.8-5.4
			c0,0,5.1,6.9,13.7,6.2L711.9,285.7z"/>
		<path class="st1" d="M651.2,241.8c-0.3,0-0.6,0-0.9,0c-7.4-0.4-13.7-5.3-16-12c-2.4,7-9.1,12-16.9,12c0,0,10.6,4.3,16.8-5.4
			c0,0,5.1,6.9,13.7,6.2L651.2,241.8z"/>
		<path class="st1" d="M723.7,171c-0.3,0-0.6,0-0.9,0c-7.4-0.4-13.7-5.3-16-12c-2.4,7-9.1,12-16.9,12c0,0,10.6,4.3,16.8-5.4
			c0,0,5.1,6.9,13.7,6.2L723.7,171z"/>
		<path class="st1" d="M798.2,198.2c-0.3,0-0.6,0-0.9,0c-7.4-0.4-13.7-5.3-16-12c-2.4,7-9.1,12-16.9,12c0,0,10.6,4.3,16.8-5.4
			c0,0,5.1,6.9,13.7,6.2L798.2,198.2z"/>
		<path class="st1" d="M843.7,141.7c-0.3,0-0.6,0-0.9,0c-7.4-0.4-13.7-5.3-16-12c-2.4,7-9.1,12-16.9,12c0,0,10.6,4.3,16.8-5.4
			c0,0,5.1,6.9,13.7,6.2L843.7,141.7z"/>
		<path class="st1" d="M721.4,689.3c-0.3,0-0.6,0-0.9,0c-7.4-0.4-13.7-5.3-16-12c-2.4,7-9.1,12-16.9,12c0,0,10.6,4.3,16.8-5.4
			c0,0,5.1,6.9,13.7,6.2L721.4,689.3z"/>
		<path class="st1" d="M752.6,756.8c-0.3,0-0.6,0-0.9,0c-7.4-0.4-13.7-5.3-16-12c-2.4,7-9.1,12-16.9,12c0,0,10.6,4.3,16.8-5.4
			c0,0,5.1,6.9,13.7,6.2L752.6,756.8z"/>
		<path class="st1" d="M795.6,727.3c-0.3,0-0.6,0-0.9,0c-7.4-0.4-13.7-5.3-16-12c-2.4,7-9.1,12-16.9,12c0,0,10.6,4.3,16.8-5.4
			c0,0,5.1,6.9,13.7,6.2L795.6,727.3z"/>
		<path class="st1" d="M850.5,672.4c-0.3,0-0.6,0-0.9,0c-7.4-0.4-13.7-5.3-16-12c-2.4,7-9.1,12-16.9,12c0,0,10.6,4.3,16.8-5.4
			c0,0,5.1,6.9,13.7,6.2L850.5,672.4z"/>
		<path class="st1" d="M301.9,44.4c-0.3,0-0.6,0-0.9,0c-7.4-0.4-13.7-5.3-16-12c-2.4,7-9.1,12-16.9,12c0,0,10.6,4.3,16.8-5.4
			c0,0,5.1,6.9,13.7,6.2L301.9,44.4z"/>
	</g>
</g>
<g id="陸">
	<g>
		<g>
			<path class="st2" d="M53.6,105.5c0,0,1.5,6.3,3.4,8.2c1.9,1.9,11.6,2.9,11.6,2.9l5.8-3.4l3.9,1.9l4.4-1c0,0-1.5-7.3-4.4-8.2
				c-2.9-1-12.1-1.5-12.1-1.5S54.1,98.2,53.6,105.5z"/>
			<path class="st2" d="M110.3,99.2l-7.8,7.3c0,0-4.8,6.8-2.9,7.3c1.9,0.5,14,2.4,14,2.4l9.2,1l1.5-4.4l-7.3-3.4L110.3,99.2z"/>
			<path class="st2" d="M152.4,92.4l-6.8,1.9l-5.8,8.7l1.9,5.3c0,0,24.2-5.8,26.2-7.8c1.9-1.9,5.8-6.3,5.8-6.3l-8.2-3.9l-8.2,1.5
				l-1.5-6.8l-4.4,1.9L152.4,92.4z"/>
			<path class="st2" d="M178.1,84.1c-0.5,1.5,0,6.3,0,6.3l4.4,1.9l4.8-1.5l1-5.3l-4.8-3.9L178.1,84.1z"/>
			<polygon class="st2" points="124.8,99.2 130.6,102.6 125.8,107.9 122.4,107.9 121.4,102.1 			"/>
			<path class="st2" d="M83.6,105.5c0,0,1,7.8,2.9,7.8c1.9,0,4.8-3.4,4.8-3.4l0.5-6.3C91.9,103.5,85.1,103,83.6,105.5z"/>
		</g>
		<path class="st2" d="M55,219c0,0-32,5.8-34.1,6.5c-2.2,0.7-17.4,4.4-21.1,8.7C-3.8,238.6-14,240-14,246.6c0,6.5,6.5,9.4,6.5,9.4
			l13.1,0.7l7.3,9.4c0,0,20.3-0.7,20.3,4.4c0,5.1,0,21.8,0,21.8s-0.7,16-2.2,18.2c-1.5,2.2-13.8,8.7-13.8,8.7l2.2,8.7l16,7.3l2.2,8
			l-5.8,6.5c0,0-0.7,5.1,1.5,6.5s24-0.7,26.9,3.6c2.9,4.4,3.6,13.1,3.6,13.1l-2.9,7.3l-11.6-3.6c0,0-4.4,2.2-4.4,5.1
			s3.6,8.7,2.9,11.6c-0.7,2.9-3.6,10.9-3.6,10.9l7.3,3.6c0,0,5.1,0,5.8,2.9c0.7,2.9,1.5,12.3,1.5,12.3l1.5,7.3l-10.9,10.9l-1.5,3.6
			h16c0,0,2.9,7.3,2.9,13.1c0,5.8-5.8,18.2-5.8,18.2s0,5.1,2.2,5.1c2.2,0,8-5.1,10.2-5.1c2.2,0,8,2.2,9.4,5.1
			c1.5,2.9,3.6,8.7,3.6,8.7s6.5,0.7,6.5,6.5c0,5.8-4.4,26.1-4.4,26.1s0.7,3.6,0,7.3c-0.7,3.6-9.4,11.6-11.6,12.3
			c-2.2,0.7-13.1-5.1-15.3-5.8c-2.2-0.7-5.8-1.5-10.9-2.2c-5.1-0.7-8-2.9-10.2-1.5c-2.2,1.5-2.9,9.4-2.9,9.4l-7.3,2.9
			c0,0-2.9-7.3-5.8-8s-10.2,3.6-13.8,5.1S2,551.6,2,551.6s8.7,8.7,10.2,13.1s1.5,10.9,2.2,13.1c0.7,2.2,5.8,12.3,5.8,14.5
			c0,2.2-1.5,14.5,0.7,14.5s11.6-10.9,13.1-6.5c1.5,4.4,7.3,7.3,7.3,7.3s6.5,0,10.9,0.7s24.7,4.4,24.7,4.4s-13.1,5.1-16,6.5
			c-2.9,1.5-6.5,10.2-6.5,10.2l-3.6,4.4c0,0-3.6-6.5-9.4-4.4c-5.8,2.2-13.8,5.1-13.8,5.1l6.6,21.3c0,0-17.4,6-21.1,7
			c-5.9,1.6-12.3,3.1-15.2,1.6s-30.8-2.4-30.8-2.4v168.8h435.3c0,0,4.4-32.3,6.5-33c2.2-0.7,13.1-6.5,13.1-6.5l-1.2-40.4
			c0,0-0.1-11.7-3-14.6c-2.9-2.9-19-7.5-19-7.5l-6.5-3.6l-1.5-24v-14.5l1.5-12.3l8-8l-5.1-16.7h-8l-5.1-13.8c0,0,9.4-27.6,9.4-31.2
			c0-3.6-5.8-22.5-5.8-22.5l4.4-16l2.9-44.3l-14.4-0.9l-3.4,42.4l-21.4,5.8l2.2,17.4l-25.4,6.5l-16-32.7v-13.8l19.6-17.4l7.3-2.2
			v-4.4l-6.5-28.3l-2.9-10.2l-14.5,6.5h-8.7l-18.9,6.5c0,0,2.2,18.9,2.9,21.1c0.7,2.2,0,9.4,0,9.4l-13.1-5.1l-5.8-2.2
			c0,0-6.5,9.4-6.5,11.6s10.9,10.9,13.1,11.6c2.2,0.7,3.6,7.3,3.6,7.3l-10.2,5.1v5.8c0,0,0,4.4-2.2,5.1c-2.2,0.7-12.3-8-12.3-8
			s-5.1,2.2-5.1,4.4c0,2.2,4.4,7.3,4.4,7.3l-5.8,8.7c0,0-4.4,4.4-5.1,2.2c-0.7-2.2-13.1-14.5-13.1-14.5l-4.4-10.2l1.5-4.4
			c0,0-6.5-8.7-8.7-10.2s-18.9-13.8-18.9-13.8l-0.7-29.8l14.5-12.3l-3.6-22.5h8.7c0,0,8.7-6.5,10.9-8.7s9.4-12.3,9.4-12.3l-3.6-18.2
			c0,0-9.4-2.2-13.1-2.2s-15.3-3.6-15.3-3.6l-0.7-5.1c0,0,10.2-6.5,10.2-8.7s2.9-12.3,2.9-12.3l-5.8-10.2l2.2-7.3l-2.2-11.6
			l-5.1,1.5l1.5,7.3l-7.3,2.2l-11.6-45L206,325l2.9,9.4l5.8-2.2l-2.2-15.3l-7.3-13.1l-14.5-6.5l-8,7.3l-8,2.9l-2.9,6.5h-8l-3.6-2.9
			l6.5-4.4l4.4-5.8l7.3-4.4c0,0,8.7-5.1,10.9-6.5s4.4-7.3,4.4-7.3l1.5-5.1l2.9-0.7l-4.4-10.9l-5.8-5.1v-8.7l-13.1-2.9l-18.2-11.6
			l2.9-13.8l5.8-12.3c0,0-8-8-10.9-9.4c-2.9-1.5-25.4-3.6-25.4-3.6l-8,11.6c0,0-30.5-2.2-34.1-2.2S55,219,55,219z"/>
		<polygon class="st2" points="321.6,466 323.1,476.2 327.4,473.3 329.6,468.2 334.7,467.5 340.5,467.5 339.1,455.1 333.3,453.7 		
			"/>
		<path class="st2" d="M339.1,420.3c0,0-5.1,5.1-5.1,8.7c0,3.6-0.7,13.1-0.7,16c0,2.9,2.9,3.6,2.9,3.6l3.6-6.5l8.7-0.7
			c0,0,3.6-6.5,5.1-8.7c1.5-2.2,8.7-13.1,8.7-13.1s-2.9-2.2-5.1-2.9C355,415.9,339.1,420.3,339.1,420.3z"/>
		<path class="st2" d="M371.1,388.8c0,0-13.5,4.2-15.2,6.8s-5.9,7.6-5.1,10.1s11,3.4,11,3.4l3.4,7.6l5.1-12.7
			C370.3,404,373.6,389.7,371.1,388.8z"/>
		<path class="st2" d="M550,600.4c0,0-5.2-2.9-6.5-2.3s-4.2,6.2-4.2,6.2l0.6,5.8l-1,3.2l3.2,2.9l6.8,1.9l1.9,5.5l7.1,6.5l1,7.5
			l0.3,2.9l13,10.4l3.9,5.2l3.6,1.6l4.2-0.6l5.2,5.8l2.9-3.2l-1.6-1.6l1.3-2.3l-1.6-2.9l8.4-9.1l-0.6-1.9l10.7-6.8l1.9,4.9
			c0,0,14.9-7.1,16.2-7.5c1.3-0.3,8.1-2.6,8.1-2.6l1.9,1.9c0,0,5.8-4.5,5.8-5.5c0-1,1.3-21.1,1.3-21.1v-3.9l6.8-7.1l4.2-0.6l4.5-3.6
			l-1.9-3.6l-9.4,1.6l-1.3,3.2c0,0-4.2,0.3-5.5,0.3s-12.3-3.2-12.3-3.2l-4.9-6.2l-11.7-2.3c0,0-10.1-3.6-11-3.9
			c-1-0.3-16.9,3.9-16.9,3.9l-5.5,2.3l-4.2,1.6l-3.2,2.3l-4.9,1.3L550,600.4z"/>
		<path class="st2" d="M402.6,687.9c0,0,0,14.5,0.7,16.7c0.7,2.2,10.2,10.9,10.2,10.9l13.8-3.6l12.3-14.5L424,677.2L402.6,687.9z"/>
		<path class="st2" d="M330.6,77.7c0,0-7.4,5.2-3.6,6.8c3.8,1.5,23.4,6,23.4,6l4.9-0.3l1.8,7.3l3.8,1.5l4.6-5.2l7.9,1.8l3.1-4.8
			l3.7-7.4l9.8-0.5c0,0,4.7,0.4,7-0.5c2.3-0.9,21.1-4.9,21.1-4.9l-1.1-4.4l-18-5.5c0,0-6.3-2.8-8.4-2.6s-7.1,3.9-7.1,3.9l-6.2,0
			c0,0-1.4-3.1-3.5-2.9c-2.1,0.2-6.1,2.7-6.1,2.7s-3.1,1.4-5.3,2.2c-2.3,0.9-21.8,2-21.8,2L330.6,77.7z"/>
		<path class="st2" d="M385.4,145.3c0,0,6.7,14.7,10.7,14.7s10.7-8,10.7-8l1.3-6.7H385.4z"/>
		<path class="st2" d="M435.1,135.3c0,0,4.3,9.6,6.9,9.6c2.6,0,6.9-5.2,6.9-5.2l0.9-4.3H435.1z"/>
		<path class="st2" d="M449.8,78.3c0,0-2,4.7,1.3,4.7s18.1,2,20.1,1.3c2-0.7,8.7-7.4,8.7-7.4s5.4-9.4,7.4-9.4c2,0,8.7,5.4,8.7,5.4
			l4,4h5.4l6,2.7l16.8-4l2.7-4.7l-5.4-4l-18.1-2c0,0-1.3,5.4-3.4,4c-2-1.3-4-4.7-4-4.7s-4,0-6-0.7c-2-0.7-5.4-4-5.4-4l-6-4.7l-6,9.4
			l-5.4,8.7L449.8,78.3z"/>
		<path class="st2" d="M468.4,141.6c0,0-3.7,3.1-5.6,3.1s-9.9-0.6-9.9-0.6s-2.5,5.6-3.1,7.4c-0.6,1.9-6.2,5-6.2,5s-2.5,2.5-3.7,6.8
			c-1.2,4.3-3.7,10.5-5.6,11.8s-8,8.7-8,10.5c0,1.9-0.6,6.2,3.7,6.2s16.1-1.2,16.1-3.1c0-1.9,1.2-5,3.1-5s24.1,13,24.1,13
			s3.1,4.3,7.4,3.7s27.2,0,27.2,0l6.2,1.2l9.3-3.1l3.7-5l11.8-1.2l8-2.5c0,0,6.8,9.9,9.9,8c3.1-1.9,3.7-8,3.7-8l-4.3-11.1l2.5-6.8
			c0,0-1.9-2.5,0-4.3c1.9-1.9,18-6.2,18-6.2l5,1.2c0,0,0,6.2,2.5,7.4s5,1.9,5,1.9l5-4.3l-3.7-8.7c0,0,5.6-0.6,8.7-0.6
			s9.3,1.2,9.3,1.2s-0.6,6.8,1.2,7.4s4.3,3.1,4.3,3.1s-2.5,7.4-0.6,7.4s6.8,0,6.8,0l5-11.8l-1.2-5.6l3.1-10.5l2.5-7.4
			c0,0,0.6-3.7,2.5-5.6c1.9-1.9,11.8-9.3,11.8-9.3l5.6,1.9l8.7,0.6v-2.5l6.2-1.2l3.7,3.1l6.8-0.6l3.7-3.7l13.6-6.2v-5.6l6.8,1.9
			l3.7-14.2l2.5-9.3l6.2-5l8.7-0.6l8.7-11.1l6.2-6.8l13.6-3.1l13.6,0.6l11.8,6.2l3.7-4.3l3.7,9.9l-5,6.2l-7.4,14.2l1.9,6.2l18.6-0.6
			l9.3-4.3l8-7.4c0,0,3.7-3.7,2.5-5.6c-1.2-1.9-7.4-7.4-7.4-7.4s-4.3,0.6-5.6-1.2c-1.2-1.9-6.2-22.3-6.2-22.3l-1.9-4.3l1.2-4.3
			l9.3-8.7l5-4.3l-3.1-5l-5.6-5.6l8-8.7l3.1-5.6c0,0-1.2-1.2-2.5-3.1s-7.4-11.8-7.4-11.8l-1.9-13l-3.1-3.7l-11.1,2.5l-4.3-6.2
			l9.3-13l-0.6-4.3l1.2-10.5l-7.4,1.2c0,0-7.4-5.6-11.1-5.6s-9.3,3.7-9.3,3.7l-3.1,8.7l-9.9,9.3l-8-3.1l-6.8,5l-5.6,9.3
			c0,0-3.7-0.6-5.6-0.6s-5.6,1.9-5.6,1.9s-15.5,7.4-14.2,9.9s-1.9,9.9-1.9,9.9l-12.4,0.6l-6.8,5l-1.9,6.8l-17.3,3.7l-1.9-5l-9.3-1.2
			l-5.6-0.6L638,9.7L615.7,14l-16.1-0.6h-11.8l-15.5,4.3l-16.1,16.1c0,0,6.8,3.1,8.7,4.3c1.9,1.2,7.4,5,7.4,5l9.9-3.1l5.6-0.6
			c0,0,3.7-3.7,5.6-5c1.9-1.2-1.2-7.4-1.2-7.4l7.4-0.6l3.7,5l11.8,2.5l3.7,6.8c0,0,8.7,1.9,10.5,0.6c1.9-1.2,13-5,13-5
			s6.2,1.2,3.1,3.1s-21,16.1-21,16.1L613.3,53l-11.1-4.3l-8.7,10.5l-3.7,6.2l-9.3,5l-3.1,8.7l6.2-0.6l13.6-3.7
			c0,0,1.2,12.4,0.6,15.5c-0.6,3.1-1.9,8-4.3,9.3c-2.5,1.2-13,8.7-13,8.7l-14.9,1.9l-8.7-2.5l-7.4,1.2l-6.8-11.1
			c0,0-26.6,4.3-28.5,8.7s-2.5,7.4-2.5,7.4s-1.9-5.6-4.3-6.2c-2.5-0.6-11.1,0-11.1,0l3.1,8c0,0-0.6,3.1-2.5,4.3
			c-1.9,1.2-5,6.2-5,6.2s-5,0-6.2-1.9c-1.2-1.9-3.7-8-3.7-8l-4.3-1.2c0,0-11.8,4.3-12.4,7.4s6.2,6.8,6.2,6.8l2.5,6.2l-5,1.2
			L468.4,141.6z"/>
		<path class="st2" d="M824.8,14.4l0.9,3.1l3.5,3.5l0.4,3.5l8,4.4l1.3,2.7c0,0,9.3-1.3,12,0.4c2.7,1.8,4.4,2.2,4.4,2.2v-6.2l5.8-8.9
			l7.1-6.6l0.9-3.5c0,0-5.8,0.4-8,1.3c-2.2,0.9-15.9,0.9-18.1,0.9c-2.2,0-8-0.4-9.3-0.4S824.8,14.4,824.8,14.4z"/>
		<path class="st2" d="M734.2,472.9c0,0-11.5,0-16.2,1.4c-4.7,1.4-27.7,19.6-27.7,19.6s-4.7,24.3-7.4,25c-2.7,0.7-6.8,5.4-7.4,8.8
			c-0.7,3.4-9.5,16.9-9.5,16.9l1,12.2l5.7,10.8c0,0,0.7,6.8,4.7,6.8c4.1,0,12.2-0.7,12.2-0.7l2-10.8l6.1,4.1l6.8,10.8
			c0,0,6.1,0,8.1-0.7c2-0.7,13.5-6.1,13.5-6.1l-1.4,16.2l-10.1,1.4l5.4,8.1h6.8l8.8-4.7l10.8-3.4l4.7,2l2,10.1l6.1,3.4l0.7,10.1
			c0,0-12.8,2-13.5,4.1c-0.7,2-0.7,7.4-0.7,7.4s16.9,2.7,20.3,8.8l4.7-4.7l5.4,2l6.8,4.7l1.4-4.7l-3.4-7.4l2-3.4l-3.4-6.1l-4.7-4.1
			c0,0-1.4-5.4,0.7-6.8c2-1.4,8.8-8.1,8.8-8.1l6.1-1.4c0,0-0.7-4.7,0-6.8c0.7-2,8.8-10.8,8.8-10.8s7.4-0.7,13.5-0.7
			c6.1,0,19.6-6.1,19.6-6.1l11.5-9.5l10.8-12.2l-2.7-4.7l-3.4-6.1l7.4-3.4l6.1-8.1c0,0,21-8.1,23-8.1c2,0,12.2-1.4,12.2-1.4l3.4,7.4
			l5.4,1.4l8.1-2.7l-2-5.4l1.4-12.2l-6.8-5.4l-1.4-5.4l8.1-6.8l8.8-27.7l8.1-23c0,0,6.1-2,5.4-4.1c-0.7-2-2-8.8-2-8.8l2-4.7
			c0,0-4.1-8.1-6.8-10.1c-2.7-2-13.5-1.4-13.5-1.4h-8.1l-10.8-4.1l-12.2,0.7L868,420.9l1.4,7.4l2,5.4l-14.2,2c0,0-5.4,2-6.8,4.1
			c-1.4,2-16.2,9.5-16.2,9.5h-10.1c0,0-7.4,3.4-7.4,5.4s-0.7,4.7-0.7,4.7l-25,6.1l-18.9,0.7l-18.2,2.7l-14.2,4.7L734.2,472.9z"/>
		<polygon class="st2" points="419.1,702.3 368.5,692.8 369.2,688.1 418.4,696.8 		"/>
		<g>
			<rect x="384.9" y="521.3" class="st2" width="20.2" height="5"/>
		</g>
		<g>
			<polygon class="st2" points="430.4,571.9 384,571 384.1,566 425.4,566.8 426.3,512 431.3,512 			"/>
		</g>
	</g>
	<path class="st3" d="M239,168.9c0,0-21.8-1.2-19.7,5.1c1.2,3.6,3.9,0.9,7.3,8.2s4.5,7.5,5.4,9s0.6,3.5,0.3,9s-0.6,6.9-2.1,9
		c-1.5,2.1-10.9,4.2-12.1,9.1c-1.2,4.8,0.3,5.8-0.3,11.5c-0.6,5.8-4.8,7.6-4.8,11.8c0,4.2,2.4,3.3,0.9,9.7c-1.5,6.4-0.3,10-2.1,13.3
		c-1.8,3.3-8,10.8-3.3,14.9c2.2,2,0.9,1.5,8.8,3.3c7.9,1.8,12.1-0.3,12.7-10c0.6-9.7-1.2-16.1,3-23.3c4.2-7.3,11.5-9.7,11.5-9.7
		s8.9,2.3,13.4-5c4.5-7.3,6.5-18.3,12.9-24.7c3.4-3.4,13.6-10.9,3-27.6C268.3,173.9,251.1,163.1,239,168.9z"/>
</g>
<g id="線路">
	<g>
		
			<rect x="392.5" y="533.1" transform="matrix(0.9967 8.098011e-02 -8.098011e-02 0.9967 44.7004 -31.0021)" class="st4" width="24" height="4.9"/>
		
			<rect x="392.1" y="541.2" transform="matrix(0.9967 8.098011e-02 -8.098011e-02 0.9967 45.3504 -30.9364)" class="st4" width="24" height="4.9"/>
		
			<rect x="391.6" y="549.2" transform="matrix(0.9967 8.098011e-02 -8.098011e-02 0.9967 46.0005 -30.8707)" class="st4" width="24" height="4.9"/>
		
			<rect x="391.1" y="557.3" transform="matrix(0.9967 8.098011e-02 -8.098011e-02 0.9967 46.6506 -30.805)" class="st4" width="24" height="4.9"/>
	</g>
	<g>
		<path class="st5" d="M-33.7,736.1c29.1-15.2,70.3-55.1,83.6-60.7c36-15.2,49.5-13.2,87.2-27c34.5-12.6,44.6-12.6,66.2-13.9
			c21.6-1.2,43.7-19,54.4-27.8c17.3-14.2,22.9-25.9,45.1-17.3c22.2,8.6,43.2,24.7,56.2,37.1c13,12.4,25.9,30.3,24.7,46.3
			s-3.2,34.6-3.8,40.8c-0.6,6.2-0.5,10.7,7,30.4c9.6,25,10.4,71.7,10.4,71.7l1.1,16.9"/>
		<path class="st6" d="M361.3,626.7l10.8-17.8c0.6-1.1,5-8,5.2-9.2l-5.1-31.2"/>
		<polyline class="st6" points="357.4,606.8 365.9,598.4 365,584.1 380.7,580.3 382.2,545.2 		"/>
		<path class="st6" d="M181,634.6c0,0,5.6,71.3-25,84.3c-30.6,13-47.3,35.2-48.2,47.3c-0.9,12-2.4,63.8-2.4,63.8"/>
		<path class="st6" d="M397.1,789.9c0,0,6.7-4.3,14-8.3l0.3-38.1"/>
		<line class="st6" x1="395.4" y1="773.1" x2="411.4" y2="773.1"/>
		<path class="st6" d="M366.7,616.1c0,0-19.8-20.5-24.5-18.6c-4.6,1.9-11.1,6.5-11.1,6.5"/>
	</g>
	<g>
		<path class="st7" d="M413.6,522.6c0,0-15.3-33.9-33.8-44.4c-15.9-9-45,1.2-63.6-2.2s-34.9-15.3-39.8-38.6
			c-4.9-23.2-7.4-58.2,6.1-103.2c9.8-32.7,42.8-134.9,0.1-169.2c-23.2-18.8-86.6-23.6-76.5,52.9c0,0-68.7-26.5-13.6-94
			c19.8-24.2,23.4-38.1,81-30.4c25.9,3.5,44.7,18.6,72,15.8c40.6-4.2,98.9,24.5,68,53.5s-2.7,52.9-0.4,56.2
			c5.6,7.9,10,9.5,26.9,24.1c55,47.7,116.8,59.5,136.6,78.1S757,456.3,600.9,549.1c-51.7,30.7-103.9,63.9-129.8,104.7
			c-7.6,12-67.2,25.9-72,24.8c0,0,45.8-29.7,52.6-39.9c15.2-22.8,0.9-42.3,26.9-85.3c11.8-19.6,6-39.1,13.5-57.4
			c16.9-41.3-11.7-63.1-41.3-42.2S413.6,522.6,413.6,522.6z"/>
		<circle class="st8" cx="213.4" cy="222.9" r="9.9"/>
		<circle class="st8" cx="413.6" cy="532.5" r="9.9"/>
		<circle class="st8" cx="397" cy="679.7" r="9.9"/>
		<polygon class="st8" points="442.3,459.2 445,451.5 447.7,443.8 453.2,451.2 458.6,458.6 450.5,458.9 		"/>
		<polygon class="st8" points="461.5,598.7 465.3,605.9 469.2,613 460.1,612.1 450.9,611.1 456.2,604.9 		"/>
		<polygon class="st8" points="616.7,538.7 619.4,531 622.1,523.3 627.5,530.7 633,538.1 624.8,538.4 		"/>
		<polygon class="st8" points="274.2,426.7 280.1,432.3 286,437.9 277.1,439.8 268.1,441.8 271.1,434.2 		"/>
		<polygon class="st8" points="430.9,235.4 422.8,234.1 414.8,232.8 421.1,226.1 427.5,219.5 429.2,227.4 		"/>
		<polygon class="st8" points="211.9,101.1 210.2,109 208.5,117 202.1,110.3 195.8,103.7 203.8,102.4 		"/>
		<polygon class="st8" points="294.8,180 301.3,184.9 307.8,189.8 299.1,192.7 290.4,195.6 292.6,187.8 		"/>
		<g>
			<circle class="st8" cx="300.1" cy="295.1" r="40.6"/>
			<g>
				<path class="st4" d="M281.1,280.5v32h-4.5v-27.1l-4.6,2.8v-4.6l4.6-3H281.1z"/>
				<path class="st4" d="M297.3,312.8c-2.4,0-4.4-0.7-6-2.1c-1.6-1.4-2.5-3.4-2.9-5.9v0h4.5v0c0.2,1.2,0.6,2.1,1.4,2.7s1.8,1,3,1
					c1.4,0,2.5-0.5,3.3-1.4c0.8-1,1.2-2.3,1.2-4.1v-2.7c0-1.7-0.4-3.1-1.2-4c-0.8-1-1.9-1.4-3.3-1.4c-0.8,0-1.5,0.2-2.2,0.7
					c-0.7,0.4-1.4,1.1-1.9,1.8H289v-16.9h16.3v4.3h-11.8v7.2c0.6-0.5,1.2-0.8,1.9-1.1c0.7-0.2,1.4-0.4,2.1-0.4
					c2.8,0,4.9,0.9,6.5,2.6c1.5,1.7,2.3,4.1,2.3,7.2v2.7c0,3.1-0.8,5.5-2.4,7.3C302.4,312,300.1,312.8,297.3,312.8z"/>
			</g>
			<g>
				<path class="st4" d="M326,294.5c1.3,2.7,4,5.8,6.3,7.5c-0.5,0.4-1.3,1.2-1.6,1.7c-0.6-0.5-1.2-1.1-1.8-1.7c0,0.2,0,0.6,0,0.8
					c-0.3,6.4-0.6,8.8-1.3,9.6c-0.5,0.6-1,0.8-1.7,0.9c-0.7,0.1-2,0.1-3.3,0c0-0.6-0.3-1.4-0.7-2c1.3,0.1,2.5,0.1,3,0.1
					c0.4,0,0.7-0.1,0.9-0.3c0.5-0.5,0.8-2.5,1-7.3h-4.9c-0.5,4.1-1.9,7.7-7.3,9.7c-0.2-0.5-0.8-1.3-1.2-1.7c4.8-1.6,5.9-4.7,6.4-8
					h-3.9v-1.6c-0.6,0.6-1.3,1.2-1.9,1.7c-0.4-0.4-1.2-1.2-1.7-1.6c2.6-1.8,4.9-4.6,6.2-7.8l2.1,0.6c-1.1,2.5-2.7,4.9-4.5,6.8h12.6
					c-1.7-1.9-3.5-4.3-4.7-6.7L326,294.5z"/>
			</g>
		</g>
		<g>
			<circle class="st8" cx="590.8" cy="324.1" r="40.6"/>
			<g>
				<path class="st4" d="M561.5,341.4v-3.9l11.2-14.9c0.6-0.9,1.1-1.7,1.5-2.6c0.4-0.9,0.5-1.8,0.5-2.6v0c0-1.3-0.4-2.3-1.1-3
					c-0.7-0.7-1.8-1.1-3.2-1.1c-1.3,0-2.3,0.4-3.2,1.2s-1.3,1.9-1.5,3.3v0h-4.6v0c0.4-2.8,1.4-4.9,3-6.4c1.6-1.5,3.7-2.3,6.2-2.3
					c2.9,0,5.1,0.7,6.7,2.2c1.6,1.5,2.4,3.5,2.4,6.2v0c0,1.1-0.2,2.3-0.7,3.6c-0.5,1.2-1.1,2.4-2,3.6l-9.3,12.6h12.1v4.3H561.5z"/>
				<path class="st4" d="M591.5,341.8c-2.4,0-4.4-0.7-6-2.1c-1.6-1.4-2.5-3.4-2.9-5.9v0h4.5v0c0.2,1.2,0.6,2.1,1.4,2.7
					c0.8,0.7,1.8,1,3,1c1.4,0,2.5-0.5,3.3-1.4c0.8-1,1.2-2.3,1.2-4.1v-2.7c0-1.7-0.4-3.1-1.2-4c-0.8-1-1.9-1.4-3.3-1.4
					c-0.8,0-1.5,0.2-2.2,0.7s-1.4,1.1-1.9,1.8h-4.1v-16.9h16.3v4.3h-11.8v7.2c0.6-0.5,1.2-0.8,1.9-1.1c0.7-0.2,1.4-0.4,2.1-0.4
					c2.8,0,4.9,0.9,6.5,2.6c1.5,1.7,2.3,4.1,2.3,7.2v2.7c0,3.1-0.8,5.5-2.4,7.3C596.6,340.9,594.4,341.8,591.5,341.8z"/>
			</g>
			<g>
				<path class="st4" d="M616.7,323.4c1.3,2.7,4,5.8,6.3,7.5c-0.5,0.4-1.3,1.2-1.6,1.7c-0.6-0.5-1.2-1.1-1.8-1.7c0,0.2,0,0.6,0,0.8
					c-0.3,6.4-0.6,8.8-1.3,9.6c-0.5,0.6-1,0.8-1.7,0.9c-0.7,0.1-2,0.1-3.3,0c0-0.6-0.3-1.4-0.7-2c1.3,0.1,2.5,0.1,3,0.1
					c0.4,0,0.7-0.1,0.9-0.3c0.5-0.5,0.8-2.5,1-7.3h-4.8c-0.5,4.1-1.9,7.7-7.3,9.7c-0.2-0.5-0.8-1.3-1.2-1.7c4.8-1.6,5.9-4.7,6.4-8
					h-3.9v-1.6c-0.6,0.6-1.3,1.2-1.9,1.7c-0.4-0.4-1.2-1.2-1.7-1.6c2.6-1.8,4.9-4.6,6.2-7.8l2.1,0.6c-1.1,2.5-2.7,4.9-4.5,6.8h12.6
					c-1.7-1.9-3.5-4.3-4.7-6.7L616.7,323.4z"/>
			</g>
		</g>
		<g>
			<circle class="st8" cx="482.9" cy="526.3" r="40.6"/>
			<g>
				<path class="st4" d="M463.9,511.7v32h-4.5v-27.1l-4.6,2.8v-4.6l4.6-3H463.9z"/>
				<path class="st4" d="M480.3,544c-3.1,0-5.3-0.8-6.9-2.5c-1.5-1.6-2.3-3.8-2.3-6.6v-14.5c0-2.8,0.8-5.1,2.3-6.7
					c1.5-1.6,3.8-2.4,6.8-2.4c3,0,5.3,0.8,6.8,2.4c1.5,1.6,2.3,3.8,2.3,6.7v14.5c0,2.8-0.8,5.1-2.3,6.7S483.3,544,480.3,544z
					 M480.3,539.8c1.6,0,2.8-0.4,3.6-1.3s1.1-2,1.1-3.5v-14.5c0-1.5-0.4-2.7-1.1-3.5c-0.7-0.9-1.9-1.3-3.6-1.3s-2.8,0.4-3.6,1.3
					c-0.7,0.9-1.1,2-1.1,3.5v14.5c0,1.5,0.4,2.7,1.1,3.5S478.6,539.8,480.3,539.8z"/>
			</g>
			<g>
				<path class="st4" d="M508.8,525.6c1.3,2.7,4,5.8,6.3,7.5c-0.5,0.4-1.3,1.2-1.6,1.7c-0.6-0.5-1.2-1.1-1.8-1.7c0,0.2,0,0.6,0,0.8
					c-0.3,6.4-0.6,8.8-1.3,9.6c-0.5,0.6-1,0.8-1.7,0.9c-0.7,0.1-2,0.1-3.3,0c0-0.6-0.3-1.4-0.7-2c1.3,0.1,2.5,0.1,3,0.1
					c0.4,0,0.7-0.1,0.9-0.3c0.5-0.5,0.8-2.5,1-7.3h-4.8c-0.5,4.1-1.9,7.7-7.3,9.7c-0.2-0.5-0.8-1.3-1.2-1.7c4.8-1.6,5.9-4.7,6.4-8
					h-3.9v-1.6c-0.6,0.6-1.3,1.2-1.9,1.7c-0.4-0.4-1.2-1.2-1.7-1.6c2.6-1.8,4.9-4.6,6.2-7.8l2.1,0.6c-1.1,2.5-2.7,4.9-4.5,6.8h12.6
					c-1.7-1.9-3.5-4.3-4.7-6.7L508.8,525.6z"/>
			</g>
		</g>
	</g>
	<path class="st9" d="M-31.9,680c58.8-17.7,170.7-51.3,185.6-56.3c20.4-6.8,81-47.3,119.2-33.8c17.7,6.3,82.4,53.8,93.7,71.4
		c4.5,7,8.8,27.1,4.5,38.8c-4.3,11.7-0.2,26.6,1.7,31.5c1.9,4.9,9,40,13.9,68.4c1.3,7.3,1.9,19.5,2.2,32.6"/>
	<g>
		<path class="st9" d="M-31.7,686.5c56.3-17.3,165.1-48.5,173-51.3c10.5-3.7,62.6-23.2,67.5-25s12-6.2,23.1-11
			c7.9-3.4,27.3-7.3,39.3-2.3c8.1,3.4,36.6,22,36.6,22"/>
		<g>
			<path class="st10" d="M-31.7,686.5c1.2-0.4,2.5-0.8,3.8-1.2"/>
			<path class="st11" d="M-20.4,683.1c58.4-17.7,154.3-45.3,161.7-47.9c10.5-3.7,62.6-23.2,67.5-25s12-6.2,23.1-11
				c7.9-3.4,27.3-7.3,39.3-2.3c5.6,2.3,21,12,29.9,17.7"/>
			<path class="st10" d="M304.5,616.7c2.1,1.3,3.4,2.2,3.4,2.2"/>
		</g>
	</g>
	
		<rect x="301.5" y="622.3" transform="matrix(0.7763 0.6304 -0.6304 0.7763 474.7594 -70.2514)" class="st12" width="69.8" height="22.9"/>
</g>
<g id="建物">
	<g>
		<path class="st13" d="M156.3,179.2c-13.3-38.2-47.1-21.6-47.1-21.6c-0.6,0.2-1.2,0.4-1.8,0.6c-3.5-3.6-13.3-11.1-30.2-5.4
			c0,0-3,2.4-0.7,3.3c1.7,0.7,9.4,8.8,13.6,13c-18.8,18.6-19.1,48.6-19.1,48.6c-19.4,7.7-10.9,25.8-10.9,25.8
			c12.2-2,13.6-13.8,13.6-13.8c1.6,15.6,18,10,18,10s0.4-3-0.8-8c-1.1-4.9-12.4-13.8-12.4-13.8s1.8-3,4.4-5.2
			c6.4-5.5,18.5-14.2,24.5-19.1c1-0.8,2.3-1.5,3.8-2.1c0,3.4-0.1,6.3-0.3,7c-0.6,2,0,3.1,0,3.1c5.4-1.1,10.2-7.2,13.6-13.1
			c10.7-1.4,22.2-1.4,23.6-1.4c0.1,0,0.1,0,0.1,0s11.3,5.4,14.8,2.4C166.4,186.5,156.3,179.2,156.3,179.2z"/>
		<g>
			<g>
				<path class="st14" d="M71.1,217.8c0,0,0.5-47.8,38.2-60.2c0,0,33.7-16.6,47.1,21.6c0,0,10.1,7.3,6.7,10.4
					c-3.4,3-14.8-2.4-14.8-2.4s-0.1,0-0.1,0c-3.5-2.6-9.4-6-18.1-7.6c-15.4-2.8-43.9,16.7-49.5,33.3c0,0-1.8,5.2-1.8,5.2
					s11.3,8.8,12.4,13.8c1.1,4.9,0.8,8,0.8,8s-16.4,5.6-18-10c0,0-1.4,11.8-13.6,13.8C60.2,243.6,51.7,225.5,71.1,217.8z"/>
				<path class="st4" d="M129.9,179.5c8.8,1.6,14.7,5,18.1,7.6c-2.2,0-32.6-0.1-40.6,6.5c-6,4.9-22.5,15.8-28.8,24.3c0,0,0,0,0,0
					C78.3,196.8,114.5,176.7,129.9,179.5z"/>
			</g>
			<path class="st14" d="M109,160c0,0-9.9-14.5-31.7-7.1c0,0-3,2.4-0.7,3.3c2.3,1,15.3,15.1,16.3,15.6C93.8,172.3,109,160,109,160z"
				/>
			<path class="st14" d="M129.7,176.1c0.1,2.4-8.2,23.3-18.7,25.5c0,0-0.6-1.1,0-3.1c0.6-2,0.1-21.5,0.1-21.5L129.7,176.1z"/>
			<circle class="st4" cx="141.9" cy="176.8" r="2.4"/>
		</g>
	</g>
	<g>
		<path class="st15" d="M241,482.2v-2.7c0,0-22-3-74.9-49.1c0,0-4.9-5.3-13-2.8c-1.2,0.4-2.4,0.9-3.7,1.6l-72.8,34.1
			c0,0-9.6,4-6.1,16.4c0,0,2.7,13.1,17.2,13.3l2.3-0.3v21.9h125.3v0.2h17.9v-15.3l7.8,1.5v-1.5c-1.4-0.3-3.2-0.7-5.2-1.2
			c2,0.5,3.7,0.8,5.2,1.2v-1.8l-5.3-1.5V482L241,482.2z M162.5,481.6C162.5,481.6,162.5,481.6,162.5,481.6
			C162.5,481.6,162.5,481.6,162.5,481.6z M233.2,497.8c0.2,0.1,0.5,0.1,0.7,0.2C233.7,497.9,233.5,497.8,233.2,497.8L233.2,497.8z
			 M234.4,498c0.3,0.1,0.5,0.1,0.7,0.2C234.9,498.1,234.7,498.1,234.4,498z"/>
		<g>
			<g>
				<rect x="90.1" y="482" class="st16" width="64.3" height="32.6"/>
				<rect x="154.4" y="482" class="st4" width="78.9" height="32.6"/>
			</g>
			<rect x="151.4" y="479.7" class="st17" width="5.1" height="35"/>
			<g>
				<polygon class="st18" points="186.8,496.6 186.8,510.2 189.8,510.2 189.8,497.2 				"/>
				<polygon class="st18" points="195.4,510.1 195.4,498.1 192.7,497.5 192.7,510.1 				"/>
				<polygon class="st18" points="201,510.1 201,499 198.5,498.4 198.5,510.1 				"/>
				<polygon class="st18" points="206.6,510.1 206.6,499.9 204.3,499.4 204.3,510.1 				"/>
				<polygon class="st18" points="210.1,500.3 210.1,510 212.2,510 212.2,500.8 				"/>
			</g>
			<polygon class="st18" points="215.3,495.9 215.3,514.8 233.2,514.8 233.2,499.4 			"/>
			<g>
				<path class="st17" d="M162.1,481.5c-0.2,0-0.3-0.1-0.5-0.2c-5-1.9-17.3-13.5-17-32c0.3-19.2,8.5-21.5,8.5-21.5
					c0,0,0-0.1,0.1-0.1c-1.2,0.4-2.4,0.9-3.7,1.6l-72.8,34.1c0,0-9.6,4-6.1,16.4c0,0,2.7,13.1,17.2,13.3L154,484l0.4,0.1l8.6-2.4
					C162.6,481.6,162.3,481.5,162.1,481.5z"/>
				<path class="st16" d="M241,499.5c-16-3.6-70-15.9-78.1-17.8l-8.6,2.4l86.6,17V499.5z"/>
			</g>
			<path class="st18" d="M235.7,482v14.6l-73.4-19.2c0,0-11.4-8.3-13.8-18.6c-2.3-10.3-0.5-16.9-0.3-17.4c0.2-0.5,2.8-5,2.8-5
				s4.6-1.2,7.5-0.3c2.8,0.8,11.4,8.6,11.4,8.6l32,21.4l24.9,13.9L235.7,482z"/>
			<path class="st4" d="M204.7,487.3V471c0,0,12.8,5.8,12.8,6.3c0,0.5,0,14.1,0,14.1L204.7,487.3z"/>
			<g>
				<g>
					<polygon class="st4" points="235.4,487.9 149.7,447.8 150.1,447 235.4,487 					"/>
				</g>
				<g>
					<rect x="155.9" y="435.6" class="st4" width="0.9" height="40.1"/>
				</g>
				<g>
					<rect x="167.5" y="444.9" class="st4" width="0.9" height="32.1"/>
				</g>
				<g>
					<rect x="177.5" y="452.7" class="st4" width="0.9" height="27.7"/>
				</g>
				<g>
					<rect x="185.6" y="458.1" class="st4" width="0.9" height="24.1"/>
				</g>
				<g>
					<rect x="192.4" y="463" class="st4" width="0.9" height="21.4"/>
				</g>
				<g>
					<rect x="199" y="466.9" class="st4" width="0.9" height="19.5"/>
				</g>
				<g>
					<rect x="221.4" y="478.1" class="st4" width="0.9" height="16.7"/>
				</g>
				<g>
					<rect x="227" y="480.3" class="st4" width="0.9" height="15.2"/>
				</g>
				<g>
					<rect x="231.4" y="481.5" class="st4" width="0.9" height="14.6"/>
				</g>
			</g>
			<path class="st16" d="M75.1,476.4l64.1-21.4C139.3,455,92.5,477.3,75.1,476.4z"/>
			<path class="st16" d="M152,437.2c0,0,2.8-0.3,5.5,1.2c2.7,1.5,37.6,28.8,52.4,34.6c0,0,15.6,8.3,23.4,8.9l7.8,0.2l-33-16.6
				l-30.7-21.9l-14.1-10.4C163.3,433.3,149.9,428.6,152,437.2z"/>
			<g>
				<path class="st4" d="M164.8,476.2c-8.6-2.7-16.7-17.1-14.4-31.2c2.3-14.1,10.1-13,13.3-10.3c40.9,35.6,68.8,44.7,69.6,45.1
					c0.6,0.2,5,1.5,7.8,2.4v-2.7c0,0-22-3-74.9-49.1c0,0-4.9-5.3-13-2.8c0,0,0,0.1-0.1,0.1c0,0-8.1,2.3-8.5,21.5
					c-0.3,18.5,12,30.1,17,32c0.2,0.1,0.4,0.1,0.5,0.2c4,1,62.1,14.2,78.9,18v-1.8L164.8,476.2z"/>
			</g>
		</g>
	</g>
	<g>
		<polygon class="st15" points="617.3,703.5 617.3,690.2 606.4,685 576.8,694.1 576.8,705.4 536.9,716.6 536.9,707.7 523.4,712.5 
			523.4,729.7 519.6,730.6 519.6,753.5 524.2,753.5 530.6,753.5 532.4,753.5 583.5,753.3 586.5,753.3 599,753.3 606.4,753.3 
			606.8,753.3 650.3,753.3 650.3,717.8 		"/>
		<g>
			<g>
				<polygon class="st4" points="524.5,734.9 526.9,734.6 526.9,729.3 593.4,716.3 593.4,724.5 599.6,723.5 599.6,731.8 606.4,731 
					606.4,685 576.8,694.1 576.8,705.4 536.9,716.6 536.9,707.7 523.4,712.5 523.4,729.7 519.6,730.6 519.6,743.9 524.5,743.5 				
					"/>
				<g>
					<polygon class="st19" points="606.4,731 599.6,731.8 599.6,723.5 593.4,724.5 593.4,716.3 526.9,729.3 526.9,734.6 
						524.5,734.9 524.5,743.5 519.6,743.9 519.6,753.5 524.2,753.5 524.2,748.4 526.6,748.2 526.6,743.8 530.6,743.5 530.6,736.1 
						586.3,728.3 586.4,739.2 593.4,738.6 593.4,744.5 599,744.4 599,753.3 606.4,753.3 					"/>
					<polygon class="st20" points="593.4,744.5 593.4,738.6 586.4,739.2 586.5,753.3 599,753.3 599,744.4 					"/>
					<polygon class="st20" points="530.6,743.5 526.6,743.8 526.6,748.2 524.2,748.4 524.2,753.5 530.6,753.5 					"/>
					<polygon class="st4" points="532.4,753.5 532.4,746.3 583.5,743 583.5,753.3 586.5,753.3 586.4,739.2 530.6,743.5 530.6,753.5 
											"/>
					<polygon class="st21" points="532.4,746.3 532.4,753.5 583.5,753.3 583.5,743 					"/>
					<g>
						<polygon class="st22" points="554.6,735.6 554.7,741.6 586.4,739.2 586.3,728.3 530.6,736.1 530.6,743.5 547.6,742.2 
							547.6,736.5 						"/>
						<polygon class="st23" points="554.6,735.6 547.6,736.5 547.6,742.2 554.7,741.6 						"/>
					</g>
				</g>
				<g>
					<polygon class="st24" points="529.7,726.9 528.2,727.2 528.2,723.2 529.7,722.9 					"/>
					<polygon class="st24" points="529.7,734.2 528.2,734.4 528.2,730.4 529.7,730.2 					"/>
					<polygon class="st24" points="529.7,742.2 528.2,742.4 528.2,738.4 529.7,738.2 					"/>
					<g>
						<polygon class="st24" points="537.5,721.1 537.5,725.1 540.3,724.5 540.3,720.5 						"/>
						<polygon class="st24" points="542.5,720 542.5,724 545.7,723.3 545.7,719.3 						"/>
						<polygon class="st24" points="540.3,720.5 540.3,724.5 542.5,724 542.5,720 						"/>
					</g>
					<g>
						<polygon class="st24" points="547,718.9 547,722.9 549.9,722.3 549.9,718.3 						"/>
						<polygon class="st24" points="552,717.9 552,721.9 555.2,721.2 555.2,717.2 						"/>
						<polygon class="st24" points="549.9,718.3 549.9,722.3 552,721.9 552,717.9 						"/>
					</g>
					<g>
						<polygon class="st24" points="557,716.7 557,720.7 559.8,720.1 559.8,716.1 						"/>
						<polygon class="st24" points="561.9,715.6 561.9,719.6 565.1,718.9 565.1,714.9 						"/>
						<polygon class="st24" points="559.8,716.1 559.8,720.1 561.9,719.6 561.9,715.6 						"/>
					</g>
					<g>
						<polygon class="st24" points="567.3,714.5 567.3,718.5 570.1,717.9 570.1,713.9 						"/>
						<polygon class="st24" points="570.1,713.9 570.1,717.9 572.3,717.4 572.3,713.4 						"/>
					</g>
					<g>
						<polygon class="st24" points="557.9,735.1 557.9,736.6 559.7,736.3 559.7,734.8 						"/>
						<polygon class="st24" points="561.1,734.7 561.1,736.2 563.1,735.9 563.1,734.4 						"/>
						<polygon class="st24" points="559.7,734.8 559.7,736.3 561.1,736.2 561.1,734.7 						"/>
					</g>
					<g>
						<polygon class="st24" points="539.3,737.2 539.3,738.7 541.1,738.4 541.1,736.9 						"/>
						<polygon class="st24" points="542.4,736.7 542.4,738.2 544.5,738 544.5,736.5 						"/>
						<polygon class="st24" points="541.1,736.9 541.1,738.4 542.4,738.2 542.4,736.7 						"/>
					</g>
					<g>
						<polygon class="st24" points="547,727.5 544.1,728 544.1,732.6 547.1,732.1 						"/>
						<polygon class="st24" points="539.4,728.8 539.4,733.2 541.9,732.9 541.9,728.3 						"/>
						<polygon class="st24" points="541.9,728.3 541.9,732.9 542.1,732.8 544.1,732.6 544.1,728 						"/>
						<polygon class="st24" points="550.8,726.7 550.8,731.5 551,731.5 553,731.2 553,726.3 						"/>
						<polygon class="st24" points="555.9,725.8 553,726.3 553,731.2 556,730.8 						"/>
						<polygon class="st24" points="548.3,727.2 548.3,731.9 550.8,731.5 550.8,726.7 						"/>
						<polygon class="st24" points="560,725.2 560,730.1 560.3,730.1 562.2,729.8 562.2,724.9 						"/>
						<polygon class="st24" points="565.2,724.4 562.2,724.9 562.2,729.8 565.3,729.3 						"/>
						<polygon class="st24" points="557.6,725.5 557.6,730.5 560,730.1 560,725.2 						"/>
						<polygon class="st24" points="571.9,728.3 571.9,723.4 569.9,723.7 569.3,723.7 569.3,728.7 569.9,728.6 						"/>
						<polygon class="st24" points="567.2,724.1 567.3,729 569.3,728.7 569.3,723.7 						"/>
					</g>
				</g>
			</g>
			<g>
				<g>
					<polygon class="st17" points="650.3,717.8 617.3,703.5 617.3,690.2 606.4,685 606.4,731.1 650.3,738.7 					"/>
				</g>
				<polygon class="st25" points="606.8,753.3 650.3,753.3 650.3,738.7 606.4,731.1 606.4,753.3 				"/>
			</g>
			<polygon class="st19" points="600.8,703.8 581,709 581,705.7 600.8,700.4 			"/>
			<path class="st22" d="M586.5,694.9v3.6c0,0,2.1-1.7,3.2-1.8c1.1-0.1,4,1,4.6-0.7v-3.7L586.5,694.9z"/>
			<polygon class="st22" points="588.6,698.1 588.6,702.2 591.9,701.2 591.9,697.3 			"/>
		</g>
	</g>
	<g>
		<path class="st15" d="M281.8,707.8v-17.6l0.3,0v-3.2l0.3,0v-1.4l0.3-0.4l-0.3-0.2c0.2-0.1,0.5-0.3,0.8-0.4
			c0.7-0.3,0.6-1.4,0.6-1.8c0-0.4,0-1.7-0.2-2.8c-0.2-1.1-0.6-0.8-1.2-0.7c-0.6,0.1-0.6,1.6-0.6,1.6s0.6,0.9,0.6,1.4
			c-0.1,0.6-0.6-0.3-1-0.4c-0.5-0.1-0.6,1.4-0.6,1.4s0.1,0.2,0.2,0.4l-8.2-5.9c0.3,0,0.7-0.2,0.9-0.5c0.6-0.8,0.6-2.3,0.5-2.6
			c-0.1-0.3-0.4-1.3-0.5-1.7c-0.1-0.3-0.2-1.1-0.2-1.4s0.1-1.1,0-1.7c-0.1-0.6,0.2-2.1-1.4-2.1c0,0-1-0.2-1.1,0.3
			c-0.2,0.5,0,1-0.2,1.7s-1,0.8-0.9,1.2c0.1,0.4,1.2,0.4,1.4,0.7c0.2,0.3-0.2,0.7-0.2,0.7s-1.2-0.3-1.2,0.3s0.1,1,0.1,1.6
			c0,0.6-0.6,1.3,0.2,1.8c0.6,0.4,0.6,0.7,0.8,1l-1.9-0.2l-0.1-0.1l-0.1,0.1l-2.6-0.3v-8.4l-12-1.4v-4.5c0.1,0.1,0.1,0.1,0.2,0.2
			l2.2,0.1c0,0-10.6-15.2-35.4-19c-19.5-3-36.5,1.1-41.9,2.6c-1.2,0.3-1.9,0.6-1.9,0.6l-6.4,2.1v0.6l0.3,1.8l1-0.3v8.7l-0.8,0.1v0.5
			l-40.9,9.6l-4.7,2.5l45.6-9.9v0l1.9-0.3l-47.5,10.2v2.2l3.3-0.7v41.3h51.4v0.3h2.1v0l14.1-0.3h36.5v-0.1l54.5,0.5v-7.8
			L281.8,707.8z"/>
		<g>
			<g>
				<path class="st26" d="M232,708.8l49.8,1.7v-20.9l-50.3-5.1C231.5,684.6,232.3,709.2,232,708.8z"/>
				<polygon class="st27" points="281.8,710.5 280.6,710.4 280.6,688.5 281.8,688.7 				"/>
				<polygon class="st27" points="276,710.1 274.8,709.9 274.8,688.1 276,688.2 				"/>
				<polygon class="st27" points="270.1,709.8 268.9,709.7 268.9,687.9 270.1,688 				"/>
				<polygon class="st27" points="265,709.3 263.8,709.2 263.8,687.4 265,687.5 				"/>
				<polygon class="st27" points="258.5,708.3 257.3,708.2 257.3,686.3 258.5,686.5 				"/>
				<polygon class="st27" points="252.3,707.7 251.1,707.5 251.1,685.7 252.3,685.9 				"/>
				<polygon class="st27" points="245.7,707.3 244.5,707.1 244.5,685.3 245.7,685.4 				"/>
				<polygon class="st27" points="238.5,706.8 237.3,706.6 237.3,684.8 238.5,684.9 				"/>
				<g>
					<polygon class="st18" points="236,697.2 233.2,696.9 233.2,687.6 236,687.9 					"/>
					<polygon class="st18" points="242.9,697.7 240.3,697.4 240.3,688.3 242.9,688.7 					"/>
					<polygon class="st18" points="249.5,698.1 247,697.8 247,689 249.5,689.3 					"/>
					<polygon class="st18" points="255.8,698.5 253.4,698.2 253.4,689.6 255.8,689.9 					"/>
					<polygon class="st18" points="262,698.9 259.8,698.7 259.8,690.4 262,690.6 					"/>
					<polygon class="st18" points="268,699.2 265.8,699 265.8,690.9 268,691.2 					"/>
					<polygon class="st18" points="273.5,699.6 271.4,699.4 271.4,691.6 273.5,691.8 					"/>
					<polygon class="st18" points="279.3,700 277.4,699.7 277.4,692.2 279.3,692.4 					"/>
				</g>
				<polygon class="st28" points="230.9,680.9 231,685.1 282.1,690.3 282.1,686.8 				"/>
				<g>
					<polygon class="st27" points="236,682.9 233.3,682.6 233.3,684 236,684.3 					"/>
					<polygon class="st27" points="242.8,683.7 240.2,683.4 240.2,684.8 242.9,685.1 					"/>
					<polygon class="st27" points="249.5,684.4 247,684.1 247,685.5 249.5,685.8 					"/>
					<polygon class="st27" points="256.1,685.2 253.7,684.9 253.7,686.2 256.1,686.5 					"/>
					<polygon class="st27" points="262.5,685.9 260.2,685.6 260.2,687 262.5,687.2 					"/>
					<polygon class="st27" points="268.1,686.5 266,686.3 266,687.6 268.1,687.8 					"/>
					<polygon class="st27" points="273.6,687.1 271.5,686.9 271.6,688.2 273.6,688.4 					"/>
					<polygon class="st27" points="279.3,687.7 277.4,687.5 277.4,688.8 279.3,689 					"/>
				</g>
				<polygon class="st26" points="230.6,679.5 282.4,685.8 282.7,685.4 272,677.6 228.4,672.2 				"/>
				<g>
					<polygon class="st29" points="278.2,685 268.5,677.5 268.7,677.1 278.4,684.6 					"/>
				</g>
				<g>
					<polygon class="st29" points="273.3,684.4 264,676.9 264.2,676.6 273.5,684 					"/>
				</g>
				<g>
					<polygon class="st29" points="268.4,683.8 259.5,676.4 259.8,676.1 268.6,683.5 					"/>
				</g>
				<g>
					<polygon class="st29" points="263.5,683.2 255,675.8 255.3,675.5 263.7,682.9 					"/>
				</g>
				<g>
					<polygon class="st29" points="258.5,682.6 250.5,675.3 250.8,675 258.8,682.3 					"/>
				</g>
				<g>
					<polygon class="st29" points="253.6,682 246,674.7 246.3,674.5 253.9,681.7 					"/>
				</g>
				<g>
					<polygon class="st29" points="248.7,681.4 241.5,674.2 241.8,673.9 249,681.1 					"/>
				</g>
				<g>
					<polygon class="st29" points="243.8,680.8 237,673.7 237.3,673.4 244.1,680.5 					"/>
				</g>
				<g>
					<polygon class="st29" points="238.9,680.2 232.5,673.1 232.8,672.8 239.2,679.9 					"/>
				</g>
				<g>
					<polygon class="st29" points="234,679.6 228,672.6 228.3,672.3 234.3,679.3 					"/>
				</g>
				<polygon class="st27" points="235.8,673.5 266.1,677.2 266.1,668.5 228.5,664.1 228.5,672.6 				"/>
				<polygon class="st30" points="234.9,672.3 264.8,675.9 264.8,669.2 227.7,664.8 227.7,671.5 				"/>
				
					<ellipse transform="matrix(0.9956 -9.393743e-02 9.393743e-02 0.9956 -62.0109 27.5236)" class="st27" cx="261.3" cy="672.4" rx="1.3" ry="1.9"/>
				<polygon class="st26" points="255.8,673.8 252.8,673.5 252.8,669.3 255.8,669.7 				"/>
				<polygon class="st26" points="251.3,673.3 248.2,672.9 248.2,668.8 251.3,669.1 				"/>
				<polygon class="st26" points="246.7,672.7 243.7,672.4 243.7,668.2 246.7,668.6 				"/>
				<polygon class="st26" points="242.2,672.2 239.1,671.8 239.1,667.7 242.2,668 				"/>
				<polygon class="st26" points="237.6,671.6 234.6,671.3 234.6,667.1 237.6,667.5 				"/>
				<polygon class="st26" points="233,671.1 230,670.7 230,666.6 233,666.9 				"/>
				<path class="st27" d="M271.8,668.2c0,0-1-0.2-1.1,0.3c-0.2,0.5,0,1-0.2,1.7s-1,0.8-0.9,1.2s1.2,0.4,1.4,0.7
					c0.2,0.3-0.2,0.7-0.2,0.7s-1.2-0.3-1.2,0.3c0,0.6,0.1,1,0.1,1.6s-0.6,1.3,0.2,1.8c0.8,0.5,0.5,0.9,1,1.2
					c0.5,0.3,1.8,0.7,2.4-0.1c0.6-0.8,0.6-2.3,0.5-2.6c-0.1-0.3-0.4-1.3-0.5-1.7c-0.1-0.3-0.2-1.1-0.2-1.4s0.1-1.1,0-1.7
					C273.2,669.7,273.4,668.1,271.8,668.2z"/>
				<path class="st27" d="M280.5,683.5c0,0,0.2-1.5,0.6-1.4c0.5,0.1,1,0.9,1,0.4s-0.6-1.4-0.6-1.4s0.1-1.5,0.6-1.6s1-0.4,1.2,0.7
					c0.2,1.1,0.2,2.4,0.2,2.8s0.2,1.5-0.6,1.8c-0.7,0.3-1.1,0.7-1.6,0.4S280.5,683.5,280.5,683.5z"/>
				<g>
					<polygon class="st29" points="287.7,708.1 231.9,705.6 231.5,712.7 287.7,713.6 					"/>
					<polygon class="st25" points="231.5,712.7 231.4,715.3 287.7,715.9 287.7,713.6 					"/>
				</g>
				<polygon class="st29" points="230.6,679 230.6,681.5 282.4,687.1 282.4,685.4 				"/>
			</g>
			<g>
				<polygon class="st27" points="125.7,672.7 130.4,670.2 177.2,659.2 176.1,661.7 				"/>
				<polygon class="st17" points="159.3,715.5 129,715.5 129,672.7 159.3,667.2 				"/>
				<polygon class="st26" points="159.7,715.5 233.1,715.5 233.1,672.7 159.7,667.2 				"/>
				<polygon class="st31" points="129,672.7 129,715.5 130.7,715.5 130.7,672.5 				"/>
				<polygon class="st27" points="159.3,715.5 161.7,715.5 161.7,667.5 159.3,667.2 				"/>
				<polygon class="st16" points="181.1,669.9 181.1,715.8 219.9,715.1 219.9,671.8 181,668.6 				"/>
				<polygon class="st27" points="180.4,669.1 180.4,715.8 182.5,715.8 182.5,668.6 				"/>
				<polygon class="st27" points="218.2,671.7 218.2,715.5 219.9,715.5 219.9,671.8 				"/>
				<path class="st27" d="M230.9,672.7c-0.3,1,0,42.8,0,42.8h2.2v-42.8H230.9z"/>
				<polygon class="st25" points="221.4,680.7 221.4,689.4 229.8,689.6 229.8,681.4 				"/>
				<g>
					<polygon class="st18" points="178.6,696.2 162.8,696.2 162.8,676.8 178.5,678 					"/>
					<path class="st16" d="M179.1,696.7h-16.8v-20.3l16.7,1.2L179.1,696.7z M163.3,695.7h14.9l-0.1-17.3l-14.7-1V695.7z"/>
				</g>
				<rect x="162.8" y="696.2" class="st16" width="16" height="2.4"/>
				<g>
					<line class="st18" x1="171.1" y1="677.4" x2="171.1" y2="695.7"/>
					<rect x="170.6" y="677.4" class="st16" width="1" height="18.3"/>
				</g>
				<polygon class="st31" points="125.7,672.7 125.7,674.9 179.9,663.9 179.9,661 				"/>
				<polygon class="st17" points="161.7,667.5 230.9,675 254.4,672.5 179.3,663.8 				"/>
				<polygon class="st27" points="179.3,663.8 255.2,672.9 255.2,670.4 179.4,661 				"/>
				<polygon class="st17" points="172.1,651.1 172.1,661.6 179.2,660.2 179.2,649 				"/>
				<path class="st26" d="M179.2,649v11.1L254,670v-7.9c0,0-14.2-13.7-32.7-16.7C202.8,642.3,179.2,649,179.2,649z"/>
				<g>
					<path class="st27" d="M221,643.9c-19.5-3-36.5,1.1-41.9,2.6v2.5l0.1,0c0,0,26.1-6,43.4-2.9c0,0,17.1,2.9,31.7,16.7l2.2,0.1
						C256.5,662.9,245.9,647.8,221,643.9z"/>
					<path class="st31" d="M177.2,647.1l-6.4,2.1v0.6l0.3,1.8l8-2.5v-2.5C177.9,646.9,177.2,647.1,177.2,647.1z"/>
				</g>
				<polygon class="st27" points="179.2,648.3 179.2,659.4 181.7,659.4 181.7,647.7 				"/>
				<polygon class="st31" points="171.3,660.1 171.3,662.8 179.5,661.4 179.5,658.6 				"/>
				<g>
					<path class="st30" d="M241.7,658.7c-16.4-11.5-42.2-8.4-42.5-8.4l-0.2-1.5c0.3,0,26.7-3.1,43.5,8.7L241.7,658.7z"/>
				</g>
				<g>
					
						<rect x="222.2" y="648.5" transform="matrix(0.1781 -0.984 0.984 0.1781 -460.4336 756.6301)" class="st25" width="1" height="10.9"/>
				</g>
				<polygon class="st18" points="203.6,653.7 203.6,662.2 238.6,667.4 238.6,659.4 				"/>
				<polygon class="st27" points="179.5,658.6 179.4,661 254,670.9 254,668.9 				"/>
				<polygon class="st27" points="201.8,652.1 201.8,654.4 239.7,660.3 239.7,658.4 				"/>
				<polygon class="st27" points="252.4,660.9 252.4,669.6 254.1,669.6 254.1,661.8 				"/>
				<path class="st27" d="M185.5,651.4l0.4,1.4c0,0,0.5,1.6,0.5,1.9c0,0.4-0.4,1.7-0.4,1.7s-0.6,0.8-0.9,0.6c-0.4-0.3-1-0.7-1-0.7
					l-0.1-1.2c0,0-0.6,0.8-0.6,1.3c0,0.5-0.3,0.7,0.5,1.3s3.2,1.3,4.5,1.5c1.3,0.2,3.8-0.4,3.8-0.4l0.2-1.6l-1.4-0.1l-0.1-0.4l1-1.2
					l-1.6-1C190.3,654.5,185.8,650.5,185.5,651.4z"/>
				<path class="st27" d="M195,655.3l-0.1,1c0,0,1.2,0.8,1.3,1.3c0.1,0.5,0.2,1.1,0.2,1.1s-1.2-0.6-1.5-0.6c-0.3,0-0.7,0.9-0.7,0.9
					s3.2,1,3.4,1.2c0.3,0.2,0.6,1,1.5,0.4c0.8-0.6,1.7-1.1,1.7-1.1l0.1-0.9l-1.2,0.4l-0.6-1.4l0.7-0.4c0,0,0.4,0,0.1-0.4
					c-0.3-0.4-2.2-1.5-2.2-1.5L195,655.3z"/>
				<path class="st27" d="M240.8,661.6c0,0-0.3,1.2-0.2,1.7c0.1,0.5,0.4,0.5,0.5,0.7c0.1,0.3,0.1,1.1,0.2,1.6
					c0.1,0.5,0.1,0.8,0.4,0.8c0.3,0,0.4-1.7,0.4-1.7l1,0.1l0.1,1.6l0.8,0.2c0,0,0.3-1.7,0.2-1.9c-0.1-0.3-1.4-1.3-1.4-1.3
					s-0.3-0.9-0.3-1.2s0-0.9-0.5-0.8C241.5,661.4,240.8,661.6,240.8,661.6z"/>
				<path class="st27" d="M244.2,661.8c0,0,0.6,1.8,0.6,2.3s0,2.4,0,2.4l0.6,0.6c0,0,0-1.4,0.3-1.6c0.3-0.2,0.6-0.4,0.9,0.2
					c0.3,0.6,0.3,1.1,0.4,1.4c0.1,0.3,1,0.4,1.3,0.3c0.3-0.1,1-0.2,0.9-0.7c-0.1-0.6-0.2-1.4-0.5-1.6c-0.3-0.2-0.6-1.3-0.6-1.7
					c-0.1-0.4,0-0.9-0.6-0.9c-0.6,0-1.2,0.3-0.8,0.9c0.4,0.6,1.2,1.2,0.4,1.1c-0.8-0.1-1.7-0.7-1.7-0.7S245,660.9,244.2,661.8z"/>
				<path class="st27" d="M250.3,663.5c0,0-0.7-0.6-0.7,0.1c0,0.6,0.4,1.1,0.4,1.6s-0.2,1-0.2,1.5s0.2,1.1,0.2,1.1l0.6-0.3
					c0,0,0.4,0.8,0.4,0.2c0-0.6-0.2-1.3-0.3-1.6C250.4,665.9,250.3,663.5,250.3,663.5z"/>
				<rect x="202.6" y="653.9" class="st27" width="1.8" height="8.9"/>
				<rect x="214.2" y="655.5" class="st27" width="1.2" height="8.7"/>
				<rect x="222.1" y="656.8" class="st27" width="1.2" height="8.7"/>
				<rect x="229.6" y="657.9" class="st27" width="1.2" height="8.7"/>
				<rect x="237.7" y="658.4" class="st27" width="1.8" height="8.7"/>
			</g>
		</g>
	</g>
</g>
<g id="文字">
	<g>
		<g>
			<path class="st32" d="M114.3,83.8c0.4,0.5,0.8,1,1.2,1.3c-0.3,1.9-1,2.6-2.2,2.4c-3.2-0.4-3.9-3.7-4.1-7.5h-2v7.2H105V80h-2.1
				c-0.1,2.6-0.7,5.4-3.2,7.5C99.3,87,98.5,86.3,98,86c2.1-1.8,2.6-4,2.8-6h-2.4v-2h2.4v-1.6c-0.5,0.2-1.1,0.4-1.5,0.6
				c-0.3-0.4-0.8-1.3-1.2-1.7c1.7-0.4,3.7-1.2,4.7-2l1.9,0.7c-0.5,0.5-1.1,0.9-1.8,1.4h0.1V78h2.1v-4.4h2.1V78h3.9
				c0,1,0.1,2,0.2,2.9l0.3-0.3l0.4,0.2c0.5-0.5,1.1-1.3,1.4-1.9l1.9,0.9c-0.7,0.6-1.4,1.3-1.9,1.7c0.8,0.4,1.5,0.9,2,1.3L114.3,83.8
				z M113.7,75.8c-0.5-0.5-1.6-1.2-2.5-1.8c0.4,1.5,1.2,2.7,2.6,2.8c0.2,0,0.4-0.5,0.5-1.3c0.4,0.4,0.8,0.9,1.2,1.2
				c-0.3,1.6-1.1,2.2-2.2,2c-2.9-0.4-3.9-2.8-4.3-5.7h-9.7v-2h11.4c0,0.6,0.1,1.3,0.2,1.8l0.6-0.6c1.1,0.6,2.7,1.5,3.5,2.1
				L113.7,75.8z M114,84.1c-0.5-0.5-1.5-1.1-2.5-1.7c0.4,1.7,1,3,2.3,3.1c0.2,0,0.4-0.6,0.5-1.7L114,84.1z M115.2,71.5
				c-0.7,0.7-1.4,1.3-2,1.7l-1.3-0.7c0.5-0.5,1.1-1.3,1.4-1.9L115.2,71.5z"/>
			<path class="st32" d="M121.4,80.2v0.9H133c0,0,0,0.5-0.1,0.8c-0.2,3-0.5,4.4-1,4.9c-0.4,0.4-0.7,0.6-1.2,0.6
				c-0.4,0.1-1.2,0.1-2.1,0c0-0.6-0.2-1.4-0.5-1.9c0.6,0.1,1.2,0.1,1.5,0.1c0.2,0,0.4,0,0.6-0.2c0.2-0.3,0.4-1,0.6-2.8h-6.9v2.1h2.1
				v-1.7h2v3.4h-8.3v0.8h-2v-4.1h2v1.7h2.2v-2.1h-2.6v-11h4.2c0.1-0.5,0.3-1,0.3-1.4l2.6,0.2c-0.2,0.4-0.4,0.9-0.6,1.3h5.2v6.1h-9.5
				v0.8h12.2v1.6H121.4z M121.4,73.1V74h7.3v-0.8H121.4z M128.6,76.2v-0.9h-7.3v0.9H128.6z"/>
		</g>
	</g>
	<g>
		<g>
			<path class="st32" d="M356.9,51.5c-0.7-0.6-2.2-1.4-3.3-1.9l1.2-1.6c1.1,0.4,2.7,1.1,3.4,1.8L356.9,51.5z M354,58.5
				c0.9-1.4,2.2-3.8,3.2-5.9l1.7,1.3c-0.9,2-1.9,4.1-2.9,5.9L354,58.5z M357.9,46.6c-0.7-0.6-2.1-1.5-3.3-2l1.2-1.6
				c1.1,0.4,2.6,1.2,3.3,1.8L357.9,46.6z M364.8,45.6c-1.8,0.2-3.6,0.3-5.3,0.4c-0.1-0.5-0.3-1.3-0.6-1.8c3.4-0.2,7.3-0.6,9.6-1.3
				l1.5,1.8C368.5,45,366.7,45.3,364.8,45.6c0.4,0.9,0.9,2,1,2.8l-2,0.7c-0.1-0.8-0.5-2-0.9-2.9L364.8,45.6z M370.7,55.4h-4.5v2.3
				c0,1.1-0.2,1.7-1,2c-0.8,0.3-1.9,0.4-3.4,0.4c-0.1-0.6-0.4-1.5-0.7-2.1c1,0,2.1,0,2.5,0c0.3,0,0.4-0.1,0.4-0.3v-2.2h-4.9v-1.9
				h4.9v-1.4h0.8c0.4-0.2,0.9-0.5,1.3-0.8h-6.2v-1.9h0.8c-0.2-0.8-0.7-1.8-1.2-2.6l1.8-0.7c0.6,0.8,1.1,2,1.3,2.7l-1.4,0.6h6.4
				l-1.4-0.5c0.6-0.9,1.2-2.3,1.6-3.4l2.3,0.7c-0.7,1.1-1.5,2.3-2.1,3.2h0.2l0.5-0.1l1.4,1c-1,1.1-2.4,2.2-3.9,2.9v0.3h4.5V55.4z"/>
			<path class="st32" d="M376.8,52.8v0.9h11.6c0,0,0,0.5-0.1,0.8c-0.2,3-0.5,4.4-1,4.9c-0.4,0.4-0.7,0.6-1.2,0.6
				c-0.4,0.1-1.2,0.1-2.1,0c0-0.6-0.2-1.4-0.5-1.9c0.6,0.1,1.2,0.1,1.5,0.1c0.2,0,0.4,0,0.6-0.2c0.2-0.3,0.4-1,0.6-2.8h-6.9v2.1h2.1
				v-1.7h2v3.4H375v0.8h-2v-4.1h2v1.7h2.2v-2.1h-2.6v-11h4.2c0.1-0.5,0.3-1,0.3-1.4l2.6,0.2c-0.2,0.4-0.4,0.9-0.6,1.3h5.2v6.1h-9.5
				v0.8H389v1.6H376.8z M376.8,45.8v0.8h7.3v-0.8H376.8z M384.1,48.9V48h-7.3v0.9H384.1z"/>
		</g>
	</g>
	<g>
		<g>
			<path class="st32" d="M339.2,152.8h4.1v2.1h-4.1v6.6h-2.3v-6.6h-4c-0.2,2.4-1.2,4.9-4.7,6.7c-0.3-0.5-1.1-1.3-1.7-1.6
				c2.9-1.4,3.9-3.3,4.1-5.1h-4v-2.1h4.1v-2.3h2.2v2.3h3.9v-2.4h2.3V152.8z M327.1,148.2c0.9,0,1.9,0,3-0.1c0.8-1.2,1.5-2.7,2-4
				l2.5,0.5c-0.6,1.1-1.3,2.3-2,3.4c1.8-0.1,3.8-0.1,5.8-0.2c-0.6-0.5-1.3-1.1-1.9-1.5l1.8-1.1c1.9,1.3,4.2,3.2,5.3,4.6l-1.9,1.3
				c-0.3-0.4-0.7-0.9-1.2-1.4c-4.7,0.3-9.6,0.5-12.9,0.6L327.1,148.2z"/>
			<path class="st32" d="M354.9,153.4c1.2,3.1,3.4,5.1,7.2,6c-0.5,0.5-1.2,1.5-1.5,2.1c-3.5-1-5.7-2.9-7.1-5.9
				c-1,2.4-3.1,4.6-7.4,5.9c-0.2-0.6-0.9-1.5-1.3-2c4.7-1.4,6.4-3.8,7-6.2h-6v-2.2h6.3c0-0.2,0-0.4,0-0.5v-2.8h-6.8v-2.3h16.3v2.3
				h-7.2v2.8v0.5h6.7v2.2H354.9z"/>
			<path class="st32" d="M368,154.2v0.9h11.6c0,0,0,0.5-0.1,0.8c-0.2,3-0.5,4.4-1,4.9c-0.3,0.4-0.7,0.6-1.2,0.6
				c-0.4,0.1-1.2,0.1-2.1,0c0-0.6-0.2-1.4-0.5-1.9c0.6,0.1,1.2,0.1,1.5,0.1c0.2,0,0.4,0,0.6-0.2c0.2-0.3,0.4-1,0.6-2.8h-6.9v2.1h2.1
				v-1.7h2v3.4h-8.3v0.8h-2v-4.1h2v1.7h2.2v-2.1h-2.6v-11h4.2c0.1-0.5,0.3-1,0.3-1.4l2.6,0.2c-0.2,0.4-0.4,0.9-0.6,1.3h5.2v6.1H368
				v0.8h12.2v1.6H368z M368,147.2v0.8h7.3v-0.8H368z M375.2,150.3v-0.9H368v0.9H375.2z"/>
		</g>
	</g>
	<g>
		<g>
			<path class="st32" d="M488.1,46.3h-7v6.1h-2.3v-6.1h-7.4v-2.2h7.4v-3.7h-3.9c-0.5,1.1-1.1,2-1.7,2.8c-0.5-0.3-1.5-0.8-2.1-1.1
				c1.4-1.5,2.6-4,3.2-6.5l2.3,0.4c-0.2,0.8-0.4,1.5-0.7,2.3h3v-3.1h2.3v3.1h5.9v2.2h-5.9v3.7h7V46.3z"/>
			<path class="st32" d="M494.3,45.1V46h11.6c0,0,0,0.5-0.1,0.8c-0.2,3-0.5,4.4-1,4.9c-0.4,0.4-0.7,0.6-1.2,0.6
				c-0.4,0.1-1.2,0.1-2.1,0c0-0.6-0.2-1.4-0.5-1.9c0.6,0.1,1.2,0.1,1.5,0.1c0.2,0,0.4,0,0.6-0.2c0.2-0.3,0.4-1,0.6-2.8h-6.9v2.1h2.1
				V48h2v3.4h-8.3v0.8h-2V48h2v1.7h2.2v-2.1h-2.6v-11h4.2c0.1-0.5,0.3-1,0.3-1.4l2.6,0.2c-0.2,0.4-0.4,0.9-0.6,1.3h5.2v6.1h-9.5v0.8
				h12.2v1.6H494.3z M494.3,38.1v0.8h7.3v-0.8H494.3z M501.6,41.2v-0.9h-7.3v0.9H501.6z"/>
		</g>
	</g>
	<g>
		<g>
			<path class="st32" d="M336.9,436.9v2.2h-16v-2.2H336.9z M335.9,424.8v2.2h-14v-2.2H335.9z M334.5,430.7v2.2h-11.2v-2.2H334.5z"/>
			<path class="st32" d="M343.9,430.6l-2.4,0.9c-0.4-1.2-1.6-4.2-2.1-5.2l2.4-0.8C342.3,426.6,343.5,429.3,343.9,430.6z
				 M355.3,425.7c-0.2,0.5-0.4,1-0.5,1.4c-0.5,2-1.6,4.9-3.1,6.9c-1.9,2.5-4.6,4.4-7.2,5.4l-2.1-2.1c2.5-0.7,5.4-2.4,7.3-4.8
				c1.5-1.9,2.6-5.2,2.8-7.7L355.3,425.7z M348.8,429.2l-2.3,0.8c-0.4-1.2-1.4-3.9-1.9-5l2.3-0.8C347.3,425.2,348.5,428,348.8,429.2
				z"/>
			<path class="st32" d="M362,433v0.9h11.6c0,0,0,0.5-0.1,0.8c-0.2,3-0.5,4.4-1,4.9c-0.4,0.4-0.7,0.6-1.2,0.6
				c-0.4,0.1-1.2,0.1-2.1,0c0-0.6-0.2-1.4-0.5-1.9c0.6,0.1,1.2,0.1,1.5,0.1c0.2,0,0.4,0,0.6-0.2c0.2-0.3,0.4-1,0.6-2.8h-6.9v2.1h2.1
				v-1.7h2v3.4h-8.3v0.8h-2v-4.1h2v1.7h2.2v-2.1h-2.6v-11h4.2c0.1-0.5,0.3-1,0.3-1.4l2.6,0.2c-0.2,0.4-0.4,0.9-0.6,1.3h5.2v6.1H362
				v0.8h12.2v1.6H362z M362,425.9v0.8h7.3v-0.8H362z M369.2,429v-0.9H362v0.9H369.2z"/>
		</g>
	</g>
	<g>
		<g>
			<path class="st32" d="M99.2,617.9c-0.7-0.6-2.2-1.4-3.4-1.8l1.1-1.6c1.2,0.4,2.7,1.1,3.4,1.7L99.2,617.9z M102.5,625
				c1,0.9,2.3,1,4.1,0.6c1.9-0.5,5.6-1.6,7.7-2.3c-0.1,0.5-0.1,1.5,0,2.1c-1.9,0.7-5.2,1.6-7.2,2.1c-2,0.5-3.5,0.4-4.9-0.6
				c-0.5,0.8-1.1,1.7-1.8,2.6l-1.5-1.8c0.6-0.6,1.2-1.4,1.8-2.1l-1-3.5l-1.9,0.5l-0.5-1.8l3.8-1.1L102.5,625z M104.9,618.7
				c0.4,2,0.5,4.4-0.6,6.5c-0.4-0.4-1.3-0.8-1.8-0.9c1.2-2.3,0.7-4.8,0.1-6.7l-1.1-3.7l1.8-0.2c1.8-0.9,3.7-1.9,4.8-2.8l2,1
				c-1.7,1.2-4,2.4-6.2,3.3l0.5,1.6l7.1-2l0.5,1.8l-2.7,0.8l1.7,6.1l-1.9,0.5l-1.7-6.1L104.9,618.7z"/>
			<path class="st32" d="M126,615.3c1.2,2,2.9,3.5,4.9,4c-0.3,0.5-0.7,1.4-0.8,2c-1.9-0.6-3.4-1.9-4.7-3.7c-0.2,1.9-1,3.9-2.9,5.8
				c-0.4-0.3-1.2-0.8-1.8-1.1c-1.6,0.9-3.2,1.7-4.5,2.4l-0.9-1.6c0.7-0.3,1.4-0.7,2.3-1.1l-1.2-4.2l-2.2,0.6l-0.5-1.6l2.2-0.6
				l-0.3-1.2l-1.4,0.4l-0.2-0.7c-0.1,0.1-0.2,0.3-0.2,0.4c-0.4-0.3-1.1-0.8-1.5-0.9c1-1.6,1.6-3.4,1.7-4.8l1.7-0.5
				c1.2,0.5,2.7,1.3,3.5,2l-0.7,1.6l0.5,1.6l-1.6,0.4l0.3,1.2l2-0.6l0.5,1.6l-2,0.6l1.1,3.9c0.7-0.4,1.4-0.7,2.1-1.1l0.4,1.1
				c1.4-1.8,1.8-3.6,1.7-5.2l-2.9,0.8l-0.5-1.8l3.2-0.9c-0.1-0.5-0.3-1.1-0.4-1.6l-0.2-0.8l-1.5,0.4c-0.1,0.9-0.2,1.6-0.4,2.3
				c-0.4-0.2-1.4-0.4-1.8-0.4c0.5-1.4,0.5-3.6,0.2-5.6l1.9-0.2c0.1,0.7,0.1,1.3,0.2,2l1-0.3l-0.8-2.7l1.9-0.5l0.8,2.7l3.1-0.9
				l0.5,1.8l-3.1,0.9l0.2,0.8c0.1,0.5,0.3,1,0.4,1.6l3.5-1l0.5,1.8L126,615.3z M118.2,612.5c-0.7-0.6-1.7-1.3-2.5-1.7
				c-0.2,0.8-0.5,1.8-1,2.7L118.2,612.5z M115.9,618.6c0.5,0.8,1.1,1.9,1.4,2.6l-1.2,0.7c-0.3-0.8-0.8-1.9-1.3-2.7L115.9,618.6z
				 M119.3,620.3c0-0.8-0.1-2-0.2-2.8l1.5-0.1c0,1,0,2.1-0.1,2.9L119.3,620.3z"/>
			<path class="st32" d="M145.8,610.2c-0.6,0.8-1.2,1.7-1.7,2.4c0.8,0.6,1.8,1.1,3,1.2c-0.2,0.5-0.6,1.4-0.7,1.9
				c-1.5-0.4-2.7-1.2-3.7-2.2l0.5,1.9c0.2,0.8,0.2,1.3-0.2,1.7c-0.4,0.4-1.1,0.6-2.1,0.9c-0.2-0.5-0.6-1.1-0.9-1.5
				c0.6-0.1,1.2-0.3,1.3-0.4c0.2-0.1,0.2-0.1,0.2-0.3l-1.1-3.9c0.1,2.7-0.6,4.7-1.9,6.1c-0.3-0.3-1.1-0.8-1.6-0.9
				c0.9-0.9,1.5-2.2,1.7-3.6l-1.6,0.5l-0.4-1.5l-1,0.8c-0.1-0.3-0.3-0.6-0.5-0.9l-0.8,0.3l1.9,6.8l-1.7,0.5l-1.9-6.6l-2.2,0.8
				l-0.7-1.6l1.2-0.4c0.2-0.4,0.3-0.8,0.5-1.2c-0.7-0.6-1.7-1.3-2.5-1.8l0.6-1.6c0.1,0.1,0.3,0.2,0.5,0.2c0.2-1,0.3-2.3,0.4-3.2
				l1.9,0.1c-0.3,1.3-0.6,2.8-0.9,3.9c0.3,0.2,0.5,0.3,0.7,0.5c0.3-1.1,0.6-2.2,0.7-3.1l1.8,0.3c-0.5,1.6-1.2,3.6-1.8,5.2l1.4-0.5
				c-0.3-0.3-0.5-0.6-0.8-0.9l1.2-1c1,0.9,2,2.2,2.4,3.1l-0.2,0.1l2.2-0.6l0.3-0.1l1.1,0.1l-0.4-1.4l-3.2,0.9L135,605l2.5-0.7
				c0.1-0.6,0.1-1.3,0.1-1.8l2.3-0.3c-0.1,0.5-0.2,1.1-0.3,1.5l3.4-1l1.7,6.1l-3.1,0.9l0,0.1c0.4,0.6,0.8,1.1,1.2,1.7
				c0.4-0.7,0.8-1.4,1-2L145.8,610.2z M132.8,614.5c0.3,1.6,0.4,3.3,0.2,4.5c-0.4-0.1-1.2-0.2-1.6-0.3c0.2-1.1,0-2.6-0.2-4
				L132.8,614.5z M136.1,613.2c0.6,0.8,1.3,1.8,1.6,2.6l-1.3,0.9c-0.3-0.8-0.9-1.8-1.5-2.6L136.1,613.2z M137.4,606.9l4.4-1.2
				l-0.2-0.8l-4.4,1.2L137.4,606.9z M138,609.2l4.4-1.2l-0.2-0.9l-4.4,1.2L138,609.2z"/>
		</g>
	</g>
	<g>
		<g>
			<path class="st32" d="M70.1,675.7l1.3-1.7c0.7,0.8,1.5,1,2.1,0.8c1.1-0.3,1.5-1,1-2.7l-2.1-8l2.4-0.7l2.2,8.2
				c0.6,2.3,0,4.5-2.7,5.2C72.7,677.3,71.3,676.9,70.1,675.7z"/>
			<path class="st32" d="M87.7,673l-3.7-3.9l-1.7,0.5l1.2,4.6l-2.4,0.6l-3.2-12.2l4.2-1.1c2.5-0.7,4.8-0.3,5.5,2.5
				c0.5,1.8-0.1,3.2-1.4,4.1l4.2,4.2L87.7,673z M81.8,667.6l1.6-0.4c1.6-0.4,2.2-1.3,1.9-2.6c-0.4-1.3-1.3-1.5-2.9-1.1l-1.6,0.4
				L81.8,667.6z"/>
			<path class="st32" d="M107,663c-0.6,0.8-1.2,1.7-1.8,2.4c0.8,0.6,1.8,1.1,3,1.3c-0.2,0.5-0.6,1.4-0.7,1.9
				c-1.5-0.4-2.7-1.3-3.7-2.3l0.5,1.9c0.2,0.8,0.2,1.3-0.2,1.7c-0.5,0.4-1.2,0.6-2.2,0.9c-0.2-0.5-0.6-1.1-0.9-1.5
				c0.6-0.1,1.2-0.3,1.4-0.3c0.2-0.1,0.2-0.1,0.2-0.3l-1.1-3.9c0.1,2.7-0.7,4.7-2,6c-0.3-0.3-1.1-0.8-1.6-1c1-0.9,1.6-2.1,1.8-3.6
				l-1.6,0.4l-0.4-1.5l-1,0.8c-0.1-0.3-0.3-0.6-0.5-0.9l-0.8,0.3l1.8,6.8l-1.7,0.4l-1.8-6.7l-2.2,0.8l-0.6-1.6l1.2-0.4
				c0.2-0.4,0.3-0.8,0.5-1.2c-0.7-0.6-1.6-1.3-2.5-1.8l0.6-1.6c0.1,0.1,0.3,0.2,0.5,0.2c0.2-1,0.4-2.2,0.4-3.2l1.8,0.1
				c-0.3,1.3-0.6,2.8-1,3.8c0.3,0.2,0.5,0.3,0.7,0.5c0.3-1.1,0.6-2.2,0.8-3.1l1.8,0.3c-0.5,1.6-1.2,3.5-1.9,5.1l1.4-0.5
				c-0.3-0.3-0.5-0.6-0.8-0.9l1.2-0.9c0.9,0.9,1.9,2.2,2.4,3.1l-0.2,0.1l2.2-0.6l0.3-0.1l1.1,0.1l-0.4-1.4l-3.2,0.8l-1.6-6.1
				l2.6-0.7c0.1-0.6,0.1-1.3,0.1-1.8l2.3-0.3c-0.1,0.5-0.2,1-0.4,1.5l3.4-0.9l1.6,6.1l-3.1,0.8l0,0.1c0.3,0.6,0.7,1.1,1.2,1.7
				c0.4-0.7,0.8-1.4,1.1-2L107,663z M93.9,667.1c0.3,1.6,0.3,3.3,0.2,4.5c-0.4-0.1-1.2-0.3-1.6-0.3c0.2-1.1,0.1-2.6-0.2-4
				L93.9,667.1z M97.2,665.8c0.6,0.8,1.3,1.8,1.6,2.6l-1.3,0.8c-0.3-0.8-0.9-1.9-1.5-2.7L97.2,665.8z M98.6,659.5l4.4-1.2l-0.2-0.8
				l-4.4,1.2L98.6,659.5z M99.2,661.8l4.4-1.2l-0.2-0.9l-4.4,1.2L99.2,661.8z"/>
		</g>
	</g>
	<g>
		<g>
			<path class="st4" d="M311.8,622.7c1.2-0.1,2.5-0.7,3.5-1.4l0.9,1.5c-1.2,0.8-2.5,1.6-3.8,1.7L311.8,622.7z M318.2,624.2
				c-0.4,1-1.1,2.1-1.7,2.7L315,626c0.6-0.6,1.3-1.7,1.7-2.6L318.2,624.2z M318.9,621l-0.5,0.6l8.4,6.9c0,0-0.3,0.3-0.5,0.5
				c-2.1,2.2-3.1,3.1-3.8,3.2c-0.5,0.1-0.9,0-1.3-0.3c-0.4-0.2-0.9-0.7-1.5-1.2c0.3-0.4,0.6-1,0.7-1.5c0.4,0.5,0.9,0.8,1.1,1
				c0.2,0.2,0.3,0.2,0.5,0.2c0.3-0.1,1-0.5,2.3-1.9l-8.4-6.9l6.3-7.7l3.1,2.5c0.4-0.3,0.8-0.6,1.1-0.8l1.8,1.6
				c-0.4,0.2-0.8,0.4-1.2,0.6l3.7,3l-3.5,4.3l-6.9-5.7l-0.5,0.6l8.7,7.2l-0.9,1.1L318.9,621z M320.3,625.7c-0.3,0.9-0.7,2.1-1.1,2.7
				l-1.6-0.7c0.4-0.6,0.9-1.8,1.3-2.7L320.3,625.7z M322.5,627c-0.1,0.8-0.3,1.8-0.5,2.4l-1.5-0.5c0.3-0.6,0.5-1.6,0.6-2.4
				L322.5,627z M326.5,622.7l0.5-0.6l-5.4-4.4l-0.5,0.6L326.5,622.7z M323,616.1l-0.5,0.6l5.4,4.4l0.5-0.6L323,616.1z"/>
			<path class="st4" d="M332.9,638.1c-0.7,0.9-1.3,1.2-2,0.9c-0.7-0.2-1.6-0.8-2.8-1.8c0.3-0.5,0.6-1.4,0.8-2
				c0.7,0.7,1.6,1.4,1.9,1.6c0.2,0.2,0.4,0.2,0.6,0l1.9-2.4c-1.9-0.3-3.7-0.7-5.3-1l0.6-1.9c1.4,0.4,3.7,0.9,5.9,1.3l3.5-4.2l-3.7-3
				l1.2-1.5l5.2,4.3L332.9,638.1z M334.8,627.6c0.1,1.2,0,2.7-0.1,3.6l-2-0.2c0.1-0.9,0.2-2.5,0.2-3.7L334.8,627.6z M339,643
				c-0.7,0.9-1.3,1.2-2.1,1c-0.8-0.2-1.7-0.9-2.9-1.9c0.3-0.5,0.6-1.5,0.8-2c0.8,0.7,1.7,1.5,2,1.7c0.3,0.2,0.4,0.2,0.6-0.1l2.1-2.6
				c-1.8-0.3-3.6-0.6-5-0.8l0.4-2.1c1.4,0.4,3.7,0.9,5.9,1.4l3.3-4l-3.8-3.1l1.2-1.5l5.4,4.5L339,643z M340.7,632.3
				c0.1,1.2,0.1,2.7,0.1,3.6l-2-0.1c0.1-0.9,0.1-2.5,0.1-3.7L340.7,632.3z"/>
			<path class="st4" d="M340.9,646c1-0.3,2.1-1.3,3.1-2.4l0.7,0.9c-1.1,1.2-2.3,2.3-3.4,2.6L340.9,646z M345.5,645.2
				c-0.5,0.9-1.3,1.9-1.8,2.5l-0.8-0.5c0.6-0.6,1.4-1.7,1.9-2.5L345.5,645.2z M350.7,646.2c0,0-0.3,0.3-0.5,0.5
				c-2.7,3-3.9,4.2-4.5,4.3c-0.5,0.1-0.8,0-1.2-0.2c-0.3-0.2-0.8-0.5-1.2-0.9c0.3-0.4,0.6-1,0.7-1.5c0.3,0.3,0.6,0.6,0.8,0.7
				c0.2,0.1,0.3,0.2,0.5,0.1c0.2,0,0.6-0.3,1.2-1l-0.5-0.2c0.3-0.5,0.6-1.4,0.8-2.2l0.8,0.3c-0.1,0.5-0.3,1-0.4,1.4
				c0.3-0.4,0.8-0.8,1.2-1.3l-3.9-3.2l5.9-7.2l5,4.1l-1,1.3l-1.6-1.3l-0.6,0.8l1.4,1.1l-1,1.2l-1.4-1.1l-0.6,0.8l1.4,1.1l-1,1.2
				l-1.4-1.1l-0.7,0.8L350.7,646.2z M346.5,645.8c-0.3,0.9-0.9,1.9-1.3,2.5l-0.8-0.4c0.4-0.6,1-1.6,1.3-2.5L346.5,645.8z M355,649.5
				c-1.3,2.4-2,4.8-1.4,6.8c-0.6,0-1.5,0.2-2,0.4c-0.7-2.6,0.3-5.3,2.1-8.3l-0.6-0.5c-1.7,2-3.9,4.2-6.3,4.9
				c-0.1-0.4-0.4-1.4-0.6-1.8c2.5-0.8,4.6-3.1,6.1-5l4.1-5l5.3,4.4l-4.8,5.9L355,649.5z M346.8,643l0.8,0.7l0.7-0.8l-0.8-0.7
				L346.8,643z M349.9,640.9l-0.8-0.7l-0.6,0.8l0.8,0.7L349.9,640.9z M350.7,638.3l-0.6,0.8l0.8,0.7l0.6-0.8L350.7,638.3z
				 M356.6,643.4l-2.4,3l2.5,2l2.4-3L356.6,643.4z"/>
		</g>
	</g>
	<g>
		<circle class="st32" cx="402.5" cy="763.2" r="5"/>
		<g>
			<g>
				<path class="st32" d="M429.6,761.3c-0.4,1-0.9,2.1-1.5,3.1v11.2h-1.8v-8.5c-0.4,0.5-0.9,1.1-1.3,1.5c-0.2-0.4-0.7-1.5-1-1.9
					c1.5-1.4,3-3.7,3.9-6L429.6,761.3z M439.2,767.1h-1v4.4h-1.8v-0.8h-2.6c-0.5,1.9-1.5,3.7-3.9,5c-0.3-0.4-0.8-1.1-1.3-1.4
					c1.9-0.9,2.8-2.2,3.3-3.5h-2.3V769h2.6c0-0.4,0-0.9,0-1.3v-0.6h-3.5v-1.8h3.5v-1.9h-2.5v-1.8h8.5v3.6h1V767.1z M436.4,767.1
					h-2.3v0.6c0,0.4,0,0.8,0,1.3h2.3V767.1z M434.1,765.3h2.3v-1.9h-2.3V765.3z"/>
				<path class="st32" d="M453.9,762.4c0,3.3-0.1,6.1,0.4,6.1c0.2,0,0.2-0.8,0.2-1.8c0.3,0.4,0.7,0.8,1,1.1
					c-0.1,1.6-0.4,2.4-1.4,2.4c-1.6,0-1.9-2.7-1.9-6.2h-1.1c-0.1,0.7-0.1,1.3-0.3,1.9c0.6,0.4,1.1,0.7,1.5,1.1l-0.8,1.4
					c-0.3-0.3-0.7-0.6-1.1-0.9c-0.4,1-1,1.8-2,2.4c-0.2-0.3-0.6-0.8-0.9-1.1v0.8c-2.5,0.2-5.1,0.3-6.9,0.5l-0.1-1.3
					c0.8,0,1.7-0.1,2.8-0.1v-0.8h-2.1v-1.1h2.1v-0.7h1.5c-0.2-0.2-0.3-0.5-0.3-1.1v-0.4h-0.8c-0.3,1.1-1.2,1.8-2.6,2.2
					c-0.1-0.3-0.5-0.8-0.7-1.1c0.9-0.2,1.6-0.5,1.9-1.1h-1.7v-1.2h2.7v-0.6h-2.2v-1.1h2.2v-0.8h1.7v0.8h2.2v1.1H445v0.6h2.8v1.2
					h-1.9v0.4c0,0.3,0,0.3,0.2,0.3h0.4c0.2,0,0.2-0.1,0.3-0.5c0.3,0.2,0.8,0.3,1.1,0.4c-0.1,0.9-0.4,1.1-1.2,1.1h-0.8
					c-0.4,0-0.6,0-0.8-0.1v0.6h2.2v1.1H445v0.7l2.5-0.1v0.3c0.7-0.5,1.2-1.2,1.5-2c-0.4-0.3-0.9-0.5-1.3-0.7l0.8-1.2
					c0.3,0.1,0.6,0.3,0.9,0.4c0-0.4,0.1-0.7,0.1-1.1h-1.4v-1.5h1.5c0-0.5,0-1.1,0-1.7h1.6c0,0.6,0,1.2,0,1.7H453.9z M453.9,770.6
					c0,0,0,0.5-0.1,0.7c-0.2,2.2-0.5,3.2-1,3.7c-0.4,0.4-0.8,0.5-1.4,0.5c-0.5,0-1.4,0-2.3,0c0-0.5-0.2-1.2-0.5-1.7
					c0.8,0.1,1.7,0.1,2,0.1c0.3,0,0.5,0,0.6-0.2c0.2-0.2,0.4-0.7,0.5-1.8h-3.7c-0.7,1.9-2.4,3-6.6,3.6c-0.1-0.5-0.5-1.2-0.9-1.6
					c3.3-0.4,4.7-1,5.4-2h-4.5v-1.4h5c0-0.3,0.1-0.5,0.1-0.8h1.9c0,0.3-0.1,0.5-0.1,0.8H453.9z"/>
				<path class="st32" d="M457.3,765c0.9,0.3,2.2,0.9,2.8,1.5l-1.1,1.6c-0.6-0.5-1.8-1.2-2.7-1.6L457.3,765z M456.7,774.3
					c0.8-1.2,1.8-3.2,2.6-5.1l1.5,1.1c-0.7,1.7-1.6,3.6-2.4,5.1L456.7,774.3z M470.8,771.6c0,0-0.1,0.5-0.1,0.7
					c-0.3,1.6-0.7,2.5-1.1,2.9c-0.4,0.3-0.7,0.4-1.2,0.4c-0.4,0-1.2,0-2,0c0-0.5-0.2-1.1-0.4-1.6c0.7,0.1,1.4,0.1,1.7,0.1
					c0.3,0,0.4,0,0.6-0.1c0.2-0.1,0.4-0.5,0.5-1h-5.7l-0.2,0.6l-1.8-0.2c0.4-1,0.8-2.6,1-3.8h6.4v-0.7h-7.2v-1.4h2.1
					c-0.3-0.2-0.7-0.5-0.9-0.6c1.3-0.7,1.5-1.9,1.5-2.6v-0.7h-2.9v-1.2l-1.1,1.5c-0.6-0.5-1.8-1.3-2.7-1.7l1.1-1.4
					c0.9,0.4,2.1,1,2.7,1.5V762h4v-1.3h1.9v1.3h4.3v1.5H468v2.4c0,0.7-0.1,1.1-0.5,1.3s-1,0.2-1.7,0.2c-0.1-0.4-0.3-1-0.5-1.4
					c0.4,0,0.8,0,0.9,0c0.1,0,0.2,0,0.2-0.2v-2.4h-0.8v0.7c0,0.8-0.2,2.2-1.4,3.2h6v3.5h-6.7l-0.2,0.6H470.8z M463.3,764.1
					c-0.4,1.1-1.2,2.1-2,2.7c-0.3-0.3-0.9-0.8-1.3-1c0.8-0.5,1.4-1.3,1.8-2.1L463.3,764.1z M469.5,763.7c0.7,0.7,1.5,1.7,1.9,2.4
					l-1.5,0.8c-0.3-0.7-1.1-1.7-1.8-2.5L469.5,763.7z"/>
				<path class="st32" d="M486,763.6c-0.1,0.3-0.3,0.8-0.4,1.1c-0.4,1.6-1.1,4-2.4,5.8c-1.5,1.9-3.6,3.5-6.4,4.4l-1.7-1.9
					c3.2-0.7,5-2.1,6.3-3.7c1.1-1.3,1.7-3.2,1.9-4.5h-7.5c-0.7,0-1.5,0-1.9,0.1v-2.3c0.5,0,1.4,0.1,1.9,0.1h7.4c0.3,0,0.8,0,1.3-0.1
					L486,763.6z"/>
				<path class="st32" d="M500.3,772.7c0.4,0,0.9-0.1,1.2-0.1v2.1c-0.3-0.1-0.9-0.1-1.2-0.1h-8.8c-0.4,0-0.9,0-1.3,0.1v-2.1
					c0.4,0,0.9,0.1,1.3,0.1h3.3v-5.2h-2.5c-0.3,0-0.9,0-1.3,0.1v-2c0.4,0.1,0.9,0.1,1.3,0.1h7.3c0.4,0,0.9,0,1.2-0.1v2
					c-0.4,0-0.9-0.1-1.2-0.1h-2.7v5.2H500.3z"/>
				<path class="st32" d="M509.2,762c0,0.4,0,0.7,0,1.2v5.4c0,0.4,0,1,0,1.4h-2.4c0-0.3,0.1-0.9,0.1-1.4v-5.4c0-0.3,0-0.9-0.1-1.2
					H509.2z M516.6,761.8c0,0.4-0.1,1-0.1,1.6v3.2c0,3.4-0.7,4.9-1.9,6.2c-1.1,1.2-2.7,2-3.9,2.3l-1.7-1.8c1.6-0.4,2.9-1,3.9-2
					c1.1-1.2,1.3-2.4,1.3-4.9v-3c0-0.6,0-1.2-0.1-1.6H516.6z"/>
				<path class="st32" d="M521.2,766.8c0.6,0,1.7,0.1,2.6,0.1h8.6c0.7,0,1.5-0.1,1.9-0.1v2.5c-0.4,0-1.2-0.1-1.9-0.1h-8.6
					c-0.9,0-2,0-2.6,0.1V766.8z"/>
				<path class="st32" d="M536.3,774.7c0.8-0.8,1.4-2,1.7-3.1l1.6,0.5c-0.4,1.3-0.9,2.6-1.8,3.5L536.3,774.7z M540.4,769.2v0.7h10.3
					c0,0,0,0.4,0,0.6c-0.2,2.9-0.4,4.1-0.8,4.5c-0.3,0.4-0.7,0.5-1.1,0.5c-0.4,0.1-1.1,0.1-1.8,0c0-0.5-0.2-1.1-0.4-1.5
					c0.6,0.1,1.1,0.1,1.3,0.1c0.2,0,0.4,0,0.5-0.2c0.2-0.2,0.4-1,0.5-2.8h-10.3v-9.3h3.8c0.1-0.4,0.3-0.9,0.3-1.3l2.3,0.1
					c-0.2,0.4-0.4,0.8-0.5,1.1h4.5v5.3h-8.4v0.7H551v1.3H540.4z M541.7,771.9c0.3,0.9,0.4,2.2,0.4,3l-1.7,0.2c0-0.8-0.1-2-0.3-3
					L541.7,771.9z M540.4,763.2v0.7h6.5v-0.7H540.4z M546.9,765.8v-0.8h-6.5v0.8H546.9z M544.2,771.8c0.4,0.8,0.7,1.9,0.8,2.6
					l-1.6,0.4c-0.1-0.7-0.4-1.8-0.7-2.7L544.2,771.8z M546.6,771.4c0.4,0.6,0.9,1.5,1.1,2l-1.4,0.5c-0.1-0.6-0.6-1.5-1-2.1
					L546.6,771.4z"/>
				<path class="st32" d="M559.1,773.2c0,1.1-0.2,1.6-0.9,1.9c-0.7,0.3-1.7,0.4-3.1,0.4c-0.1-0.5-0.4-1.4-0.6-1.9
					c0.9,0.1,2,0.1,2.4,0c0.3,0,0.4-0.1,0.4-0.4v-2.9c-1.5,0.9-3.1,1.8-4.4,2.4l-0.7-1.7c1.3-0.6,3.2-1.6,5.1-2.6v-5.1h-4.5v-1.8
					h6.4V773.2z M554.3,764.5c0.8,0.8,1.6,1.9,2.1,2.7l-1.6,1c-0.4-0.7-1.3-2-2-2.8L554.3,764.5z M566.5,773.2
					c0,1.1-0.2,1.6-0.9,1.9c-0.7,0.3-1.8,0.4-3.3,0.4c-0.1-0.5-0.4-1.4-0.7-2c1,0.1,2.2,0.1,2.5,0c0.3,0,0.4-0.1,0.4-0.4v-3.2
					c-1.5,0.9-2.9,1.7-4.2,2.4l-0.9-1.7c1.3-0.5,3.2-1.5,5.1-2.5v-4.8h-4.7v-1.8h6.6V773.2z M561.4,764.4c0.8,0.8,1.7,1.9,2.2,2.6
					l-1.6,1.1c-0.4-0.7-1.4-1.9-2.2-2.8L561.4,764.4z"/>
				<path class="st32" d="M575.3,773c0.6-0.1,1.1-0.2,1.5-0.3c2-0.5,3.6-1.9,3.6-4.2c0-2.2-1.2-3.8-3.3-4.2
					c-0.2,1.3-0.5,2.8-0.9,4.3c-0.9,3.2-2.3,5.2-4,5.2c-1.7,0-3.2-1.9-3.2-4.6c0-3.6,3.2-6.8,7.3-6.8c3.9,0,6.4,2.7,6.4,6.2
					c0,3.3-2,5.7-6.1,6.3L575.3,773z M574.1,768.2c0.4-1.2,0.7-2.5,0.8-3.8c-2.6,0.5-4,2.8-4,4.6c0,1.6,0.6,2.4,1.2,2.4
					C572.8,771.4,573.4,770.4,574.1,768.2z"/>
				<path class="st32" d="M589.6,761.4c-0.2,0.8-0.5,2.4-0.6,3.3c0.8-1.2,2.1-2.6,3.9-2.6c2.2,0,3.9,2.2,3.9,5.7
					c0,4.5-2.8,6.6-6.9,7.4l-1.2-1.8c3.5-0.5,6-1.7,6-5.5c0-2.4-0.8-3.8-2.1-3.8c-1.9,0-3.5,2.8-3.6,4.9c0,0.4,0,0.9,0.1,1.7l-2,0.1
					c-0.1-0.6-0.2-1.6-0.2-2.6c0-1.5,0.2-3.4,0.4-5.1c0.1-0.6,0.1-1.2,0.1-1.7L589.6,761.4z"/>
				<path class="st32" d="M603.9,762.1c-0.1,0.3-0.3,1.1-0.4,1.4c-0.2,1.1-0.8,4.5-0.8,6.1c0,0.3,0,0.7,0.1,1
					c0.2-0.6,0.5-1.1,0.7-1.6l1,0.8c-0.4,1.3-1,2.9-1.2,3.8c0,0.2-0.1,0.6-0.1,0.7c0,0.2,0,0.4,0,0.7l-1.8,0.1
					c-0.3-1.1-0.6-2.9-0.6-5c0-2.4,0.5-5.4,0.7-6.6c0.1-0.4,0.1-1.1,0.2-1.6L603.9,762.1z M613.9,766.2c-0.8,0.1-1.6,0.2-2.5,0.3
					c0,1.5,0.1,2.8,0.2,3.9c1.3,0.5,2.3,1.4,3.1,2l-1.1,1.7c-0.7-0.6-1.3-1.2-1.9-1.6c-0.1,1.5-1,2.6-3.1,2.6
					c-2.2,0-3.5-0.9-3.5-2.6c0-1.6,1.3-2.7,3.5-2.7c0.4,0,0.7,0,1,0.1c0-1-0.1-2.1-0.1-3.2c-0.4,0-0.8,0-1.1,0c-0.9,0-1.8,0-2.8-0.1
					l0-1.9c0.9,0.1,1.8,0.1,2.8,0.1c0.4,0,0.7,0,1.1,0c0-0.8,0-1.4,0-1.7c0-0.3,0-0.7-0.1-1h2.3c0,0.3-0.1,0.7-0.1,1
					c0,0.4,0,0.9,0,1.6c0.9-0.1,1.7-0.2,2.4-0.4V766.2z M609.7,771.5c-0.4-0.1-0.8-0.2-1.3-0.2c-0.9,0-1.5,0.4-1.5,1
					c0,0.6,0.6,0.9,1.5,0.9c1,0,1.3-0.5,1.3-1.4V771.5z M612.7,763.8c-0.2-0.7-0.5-1.6-0.8-2.2l1.1-0.3c0.3,0.6,0.7,1.6,0.8,2.2
					L612.7,763.8z M614.4,763.3c-0.2-0.7-0.5-1.6-0.9-2.2l1.1-0.3c0.3,0.6,0.7,1.6,0.9,2.2L614.4,763.3z"/>
			</g>
		</g>
	</g>
	<g>
		<circle class="st32" cx="375.2" cy="622.8" r="5"/>
		<g>
			<g>
				<path class="st32" d="M382.5,627.9c0.8-0.8,1.4-2,1.7-3.1l1.6,0.5c-0.4,1.3-0.9,2.6-1.8,3.5L382.5,627.9z M386.7,622.4v0.7h10.3
					c0,0,0,0.4,0,0.6c-0.2,2.9-0.4,4.1-0.8,4.5c-0.3,0.4-0.7,0.5-1.1,0.5c-0.4,0.1-1.1,0.1-1.8,0c0-0.5-0.2-1.1-0.4-1.5
					c0.6,0.1,1.1,0.1,1.3,0.1c0.2,0,0.4,0,0.5-0.2c0.2-0.2,0.4-1,0.5-2.8h-10.3v-9.3h3.8c0.1-0.4,0.3-0.9,0.3-1.3l2.3,0.1
					c-0.2,0.4-0.4,0.8-0.5,1.1h4.5v5.3h-8.4v0.7h10.6v1.3H386.7z M388,625.1c0.3,0.9,0.4,2.2,0.4,3l-1.7,0.2c0-0.8-0.1-2-0.3-3
					L388,625.1z M386.7,616.4v0.7h6.5v-0.7H386.7z M393.2,619v-0.8h-6.5v0.8H393.2z M390.5,625c0.4,0.8,0.7,1.9,0.8,2.6l-1.6,0.4
					c-0.1-0.7-0.4-1.8-0.7-2.7L390.5,625z M392.8,624.6c0.4,0.6,0.9,1.5,1.1,2l-1.4,0.5c-0.1-0.6-0.6-1.5-1-2.1L392.8,624.6z"/>
				<path class="st32" d="M405,626.4c0,1.1-0.2,1.6-0.9,1.9c-0.7,0.3-1.7,0.4-3.1,0.4c-0.1-0.5-0.4-1.4-0.6-1.9c0.9,0.1,2,0.1,2.4,0
					c0.3,0,0.4-0.1,0.4-0.4v-2.9c-1.5,0.9-3.1,1.8-4.4,2.4l-0.7-1.7c1.3-0.6,3.2-1.6,5.1-2.6v-5.1h-4.5v-1.8h6.4V626.4z
					 M400.1,617.7c0.8,0.8,1.6,1.9,2.1,2.7l-1.6,1c-0.4-0.7-1.3-2-2-2.8L400.1,617.7z M412.4,626.4c0,1.1-0.2,1.6-0.9,1.9
					c-0.7,0.3-1.8,0.4-3.3,0.4c-0.1-0.5-0.4-1.4-0.7-2c1,0.1,2.2,0.1,2.5,0c0.3,0,0.4-0.1,0.4-0.4v-3.2c-1.5,0.9-2.9,1.7-4.2,2.4
					l-0.9-1.7c1.3-0.5,3.2-1.5,5.1-2.5v-4.8h-4.7v-1.8h6.6V626.4z M407.3,617.6c0.8,0.8,1.7,1.9,2.2,2.6l-1.6,1.1
					c-0.4-0.7-1.4-1.9-2.2-2.8L407.3,617.6z"/>
				<path class="st32" d="M397.3,635.4c-0.2,0.3-0.4,0.5-0.5,0.7c-1.2,1.9-3.2,4.4-5.5,6.3c0.9,0.9,1.9,2,2.5,2.7l-1.9,1.5
					c-0.7-0.9-2-2.4-3.1-3.5c-0.9-0.9-2.6-2.4-3.5-3.1l1.7-1.4c0.6,0.5,1.7,1.3,2.7,2.2c1.8-1.4,3.3-3.3,4.1-4.6h-8.5
					c-0.6,0-1.5,0.1-1.8,0.1v-2.2c0.4,0.1,1.3,0.1,1.8,0.1h8.9c0.6,0,1.2-0.1,1.5-0.2L397.3,635.4z"/>
				<path class="st32" d="M397.5,644.9c1.4-1,2.3-2.5,2.7-3.8c0.4-1.4,0.5-4.4,0.5-6.3c0-0.6,0-1.1-0.1-1.5h2.4
					c0,0.1-0.1,0.8-0.1,1.4c0,1.9,0,5.3-0.5,6.9c-0.5,1.8-1.5,3.4-2.8,4.6L397.5,644.9z M404.9,645.1c0.1-0.3,0.1-0.8,0.1-1.2v-9.3
					c0-0.7-0.1-1.3-0.1-1.4h2.4c0,0-0.1,0.7-0.1,1.4v8.4c1.3-0.6,2.9-1.8,4-3.4l1.2,1.8c-1.3,1.7-3.6,3.5-5.4,4.4
					c-0.3,0.2-0.5,0.3-0.7,0.5L404.9,645.1z"/>
				<path class="st32" d="M417.8,638.7l-1.2,1.8c-0.9-0.6-2.6-1.7-3.6-2.3l1.2-1.8C415.2,637,416.9,638.1,417.8,638.7z M419.1,642.3
					c2.7-1.5,4.9-3.7,6.2-6l1.2,2.2c-1.5,2.2-3.7,4.2-6.4,5.7c-1.6,0.9-3.9,1.7-5.3,2l-1.2-2.1C415.4,643.8,417.3,643.3,419.1,642.3
					z M420.2,635.1l-1.2,1.8c-0.9-0.6-2.6-1.7-3.6-2.3l1.2-1.8C417.6,633.4,419.4,634.5,420.2,635.1z"/>
				<path class="st32" d="M438.9,643.9c0.4,0,0.9-0.1,1.2-0.1v2.1c-0.3-0.1-0.9-0.1-1.2-0.1h-8.8c-0.4,0-0.9,0-1.3,0.1v-2.1
					c0.4,0,0.9,0.1,1.3,0.1h3.3v-5.2h-2.5c-0.3,0-0.9,0-1.3,0.1v-2c0.4,0.1,0.9,0.1,1.3,0.1h7.3c0.4,0,0.9,0,1.2-0.1v2
					c-0.4,0-0.9-0.1-1.2-0.1h-2.7v5.2H438.9z"/>
			</g>
		</g>
	</g>
	<g>
		<g>
			<g>
				<circle class="st32" cx="400.8" cy="743.2" r="5"/>
			</g>
			<g>
				<g>
					<path class="st32" d="M424.3,751.8c0.8-0.8,1.4-2,1.7-3.1l1.6,0.5c-0.4,1.3-0.9,2.6-1.8,3.5L424.3,751.8z M428.4,746.3v0.7
						h10.3c0,0,0,0.4,0,0.6c-0.2,2.9-0.4,4.1-0.8,4.5c-0.3,0.4-0.7,0.5-1.1,0.5c-0.4,0.1-1.1,0.1-1.8,0c0-0.5-0.2-1.1-0.4-1.5
						c0.6,0.1,1.1,0.1,1.3,0.1c0.2,0,0.4,0,0.5-0.2c0.2-0.2,0.4-1,0.5-2.8h-10.3V739h3.8c0.1-0.4,0.3-0.9,0.3-1.3l2.3,0.1
						c-0.2,0.4-0.4,0.8-0.5,1.1h4.5v5.3h-8.4v0.7H439v1.3H428.4z M429.7,749c0.3,0.9,0.4,2.2,0.4,3l-1.7,0.2c0-0.8-0.1-2-0.3-3
						L429.7,749z M428.4,740.3v0.7h6.5v-0.7H428.4z M434.9,743v-0.8h-6.5v0.8H434.9z M432.2,748.9c0.4,0.8,0.7,1.9,0.8,2.6l-1.6,0.4
						c-0.1-0.7-0.4-1.8-0.7-2.7L432.2,748.9z M434.6,748.5c0.4,0.6,0.9,1.5,1.1,2l-1.4,0.5c-0.1-0.6-0.6-1.5-1-2.1L434.6,748.5z"/>
					<path class="st32" d="M447.1,750.4c0,1.1-0.2,1.6-0.9,1.9c-0.7,0.3-1.7,0.4-3.1,0.4c-0.1-0.5-0.4-1.4-0.6-1.9
						c0.9,0.1,2,0.1,2.4,0c0.3,0,0.4-0.1,0.4-0.4v-2.9c-1.5,0.9-3.1,1.8-4.4,2.4l-0.7-1.7c1.3-0.6,3.2-1.6,5.1-2.6v-5.1h-4.5v-1.8
						h6.4V750.4z M442.3,741.6c0.8,0.8,1.6,1.9,2.1,2.7l-1.6,1c-0.4-0.7-1.3-2-2-2.8L442.3,741.6z M454.5,750.4
						c0,1.1-0.2,1.6-0.9,1.9c-0.7,0.3-1.8,0.4-3.3,0.4c-0.1-0.5-0.4-1.4-0.7-2c1,0.1,2.2,0.1,2.5,0c0.3,0,0.4-0.1,0.4-0.4v-3.2
						c-1.5,0.9-2.9,1.7-4.2,2.4l-0.9-1.7c1.3-0.5,3.2-1.5,5.1-2.5v-4.8h-4.7v-1.8h6.6V750.4z M449.4,741.5c0.8,0.8,1.7,1.9,2.2,2.6
						l-1.6,1.1c-0.4-0.7-1.4-1.9-2.2-2.8L449.4,741.5z"/>
					<path class="st32" d="M462.5,742.1c-0.7,4.3-2.5,7.6-4.8,9.3c-0.3-0.4-1.1-1.2-1.6-1.5c1.9-1.2,3.3-3.4,4-6.2h-3.5v-1.9h4.2
						l0.4-0.1L462.5,742.1z M471,741.5c-1.3,1.4-2.9,2.9-4.2,3.9c1.1,1.9,2.6,3.5,4.6,4.4c-0.5,0.4-1.1,1.2-1.5,1.8
						c-2.3-1.3-3.9-3.4-5.1-6v4.7c0,1.2-0.3,1.7-0.9,2c-0.7,0.4-1.7,0.4-3.2,0.4c-0.1-0.6-0.4-1.6-0.8-2.1c1.1,0,2.1,0,2.4,0
						c0.3,0,0.4-0.1,0.4-0.4v-12.5h2v2.8c0.3,1.1,0.7,2.2,1.1,3.2c1.1-1.1,2.4-2.4,3.2-3.6L471,741.5z"/>
					<path class="st32" d="M478.8,743.9c0,0,0,0.5,0,0.8c-0.2,4.9-0.4,6.8-0.8,7.4c-0.3,0.4-0.6,0.6-1.1,0.7c-0.4,0.1-1,0.1-1.6,0.1
						c0-0.5-0.2-1.2-0.5-1.7c0.5,0.1,1,0.1,1.2,0.1c0.2,0,0.3,0,0.5-0.2c0.3-0.3,0.4-1.7,0.5-5.2h-1.4c-0.2,2.8-0.8,5.4-2.1,7.2
						c-0.3-0.4-0.8-1-1.3-1.3c1.6-2.1,1.8-5.7,1.8-9.3h-1.6v-1.8h2.6v-2.6h1.8v2.6h2.1v1c0.7-1,1.3-2.3,1.7-3.6l1.7,0.4
						c-0.1,0.5-0.3,1-0.5,1.5h5.2v1.7h-6c-0.4,0.7-0.9,1.4-1.3,1.9c-0.3-0.3-1.1-0.8-1.5-1l0.1-0.1h-2.6c0,0.6,0,1.2,0,1.7H478.8z
						 M484.4,748c0.6,1.4,1.7,2.6,3.1,3.2c-0.4,0.3-0.9,1-1.2,1.5c-1.2-0.7-2.2-1.8-2.8-3.1c-0.6,1.1-1.6,2.2-3.4,3.1
						c-0.2-0.4-0.8-1-1.2-1.3c2.2-0.9,3.1-2.2,3.4-3.4h-2.9v-1.7h3.1v-1.6h-0.8c-0.3,0.5-0.6,1.1-0.9,1.5c-0.3-0.3-1.1-0.8-1.5-1
						c0.8-0.9,1.4-2.3,1.8-3.6l1.7,0.4c-0.1,0.4-0.2,0.7-0.4,1.1h4.5v1.7h-2.6v1.6h2.9v1.7H484.4z"/>
					<path class="st32" d="M497.7,746.5v1h5v5.2H501V752h-3.3v0.7H496v-10.3h-0.9v-1.8l-1,1.2c-0.4-0.7-1.2-1.7-2-2.5
						c-0.5,0.9-1.2,1.8-2.1,2.7h1.4v-1.3h1.6v1.3h1.7v5.5H491v2.3c0.5-0.1,1.1-0.3,1.7-0.4c-0.2-0.4-0.4-0.8-0.6-1.1l1.5-0.6
						c0.8,1.2,1.6,2.7,1.8,3.7l-1.6,0.7c-0.1-0.4-0.2-0.8-0.4-1.3c-1.6,0.5-3.2,0.9-4.5,1.2l-0.5-1.7c0.3,0,0.6-0.1,1-0.2v-7.5
						l-0.1,0.1c-0.2-0.4-0.8-1-1.2-1.2c1.4-1.1,2.4-2.6,2.9-3.9h1.7c0.8,0.7,1.9,1.6,2.4,2.4v-0.8h3v-1.7h1.8v1.7h3.2v3h-1v4H497.7z
						 M491,743.5v0.8h2v-0.8H491z M492.9,746.3v-0.8h-2v0.8H492.9z M496.8,741v1.1h4.6V741H496.8z M500.3,743.6h-2.6v1.3h2.6V743.6z
						 M497.7,749v1.4h3.3V749H497.7z"/>
				</g>
			</g>
		</g>
	</g>
	<g>
		<circle class="st32" cx="420.3" cy="692.7" r="5"/>
		<g>
			<g>
				<path class="st32" d="M440.3,697.7l-0.9,2c-2.2-0.9-7.2-2-9.8-2.4l0.8-2C433.2,695.7,438.1,696.8,440.3,697.7z M439.7,692.6
					l-0.8,2c-1.8-0.7-5.9-1.6-8.3-2l0.7-1.9C433.6,691.1,437.7,691.9,439.7,692.6z M440.8,688.3l-0.8,2c-1.9-0.7-6.4-1.7-8.7-2
					l0.8-1.9C434.1,686.6,438.7,687.6,440.8,688.3z"/>
				<path class="st32" d="M456.9,694.2c-0.4,0-1.1,0.1-1.7,0.2c-0.8,0.1-2.1,0.3-3.5,0.6c0.3,1.3,0.5,2.4,0.6,2.9
					c0.1,0.5,0.3,1.1,0.4,1.6l-2.3,0.4c-0.1-0.6-0.1-1.2-0.2-1.6c-0.1-0.5-0.3-1.6-0.5-2.9c-1.6,0.3-3.1,0.5-3.8,0.7
					s-1.2,0.2-1.6,0.3l-0.4-2.1c0.4,0,1.2-0.1,1.7-0.2c0.7-0.1,2.2-0.4,3.8-0.6l-0.5-2.6c-1.4,0.2-2.6,0.4-3.1,0.5
					c-0.6,0.1-1,0.2-1.5,0.3l-0.4-2.2c0.5,0,1,0,1.5-0.1c0.6-0.1,1.8-0.2,3.2-0.5c-0.1-0.7-0.2-1.2-0.3-1.5
					c-0.1-0.4-0.2-0.8-0.3-1.2l2.3-0.4c0,0.3,0.1,0.9,0.2,1.2c0,0.2,0.1,0.8,0.3,1.5c1.4-0.2,2.6-0.4,3.2-0.5
					c0.5-0.1,1.1-0.2,1.5-0.3l0.4,2.1c-0.4,0-1,0.1-1.5,0.2l-3.2,0.5l0.5,2.5c1.4-0.2,2.8-0.4,3.5-0.6c0.6-0.1,1.2-0.3,1.6-0.4
					L456.9,694.2z"/>
				<path class="st32" d="M465.3,696.2c0,0.9,0.5,1.2,1.8,1.2c1.4,0,2.8-0.1,4.1-0.2l-0.1,2.2c-1,0.1-2.8,0.1-4.4,0.1
					c-2.9,0-3.6-1-3.6-2.6v-3.1h-2.6c-0.4,0-1.3,0-1.7,0.1v-2.1c0.4,0,1.2,0.1,1.7,0.1h2.6v-2.7h-1.7c-0.6,0-1.1,0-1.6,0v-2
					c0.5,0,1,0.1,1.6,0.1h7.7c0.5,0,1.1,0,1.4-0.1v2c-0.4,0-0.9,0-1.4,0h-3.8v2.7h4.8c0.3,0,1.1,0,1.6-0.1l0,2c-0.4,0-1.2,0-1.5,0
					h-4.9V696.2z"/>
				<path class="st32" d="M484.9,695.2c-1.6-0.9-4-1.8-5.8-2.4v4.5c0,0.5,0.1,1.6,0.1,2.2h-2.5c0.1-0.6,0.2-1.6,0.2-2.2v-9.2
					c0-0.6,0-1.4-0.2-1.9h2.5c-0.1,0.6-0.1,1.3-0.1,1.9v2.4c2.1,0.6,5.2,1.8,6.7,2.5L484.9,695.2z"/>
				<path class="st32" d="M497.5,697.4c1.6,0.5,3.4,1.2,4.5,1.7l-1.6,1.3c-1.1-0.5-2.8-1.3-4.6-1.9l1.1-1h-4.7l1.5,1
					c-1.3,0.8-3.2,1.5-4.8,1.9c-0.3-0.4-0.9-0.9-1.3-1.3c1.6-0.3,3.4-1,4.4-1.6h-4.4v-1.6h14.2v1.6H497.5z M493.6,688.1H488v-1.6
					h5.6v-1.2h2v1.2h5.8v1.6h-5.8v0.7h4.1v6.4h-9.8v-6.4h3.7V688.1z M497.8,689.9h-6v0.7h6V689.9z M497.8,691.7h-6v0.7h6V691.7z
					 M497.8,693.4h-6v0.7h6V693.4z"/>
				<path class="st32" d="M508.9,697.3c-1.8,0.5-3.8,1-5.3,1.5l-0.4-1.8c0.6-0.1,1.2-0.3,1.9-0.4v-3.8h-1.7v-1.7h1.7v-2.8h-1.9v-1.8
					h5.5v1.8H507v2.8h1.6v1.7H507v3.4c0.6-0.1,1.1-0.3,1.7-0.4L508.9,697.3z M515.1,693.7c0.8,1.6,2.1,3.3,3.4,4.2
					c-0.4,0.4-1,1-1.3,1.5c-1-0.9-2-2.3-2.8-3.8v4.6h-1.8v-4.5c-0.9,1.6-2.2,3-3.5,3.9c-0.3-0.4-0.9-1.1-1.2-1.5
					c1.6-0.9,3.1-2.6,4-4.4h-3V692h3.8v-2.2H511c-0.3,0.7-0.6,1.4-0.9,1.9c-0.3-0.3-1.1-0.7-1.5-1c0.8-1.1,1.3-2.9,1.5-4.7l1.7,0.3
					c-0.1,0.6-0.2,1.1-0.3,1.7h1.1v-2.8h1.8v2.8h3v1.7h-3v2.2h3.7v1.7H515.1z"/>
				<path class="st32" d="M523.3,694v0.8h10.1c0,0,0,0.4-0.1,0.7c-0.2,2.6-0.4,3.8-0.9,4.3c-0.3,0.4-0.6,0.5-1.1,0.5
					c-0.4,0-1,0.1-1.8,0c0-0.5-0.2-1.2-0.5-1.6c0.6,0.1,1.1,0.1,1.3,0.1c0.2,0,0.4,0,0.5-0.2c0.2-0.2,0.4-0.9,0.5-2.4h-6v1.8h1.8
					v-1.5h1.7v2.9h-7.2v0.7H520v-3.6h1.7v1.5h1.9v-1.8h-2.2v-9.6h3.6c0.1-0.4,0.2-0.9,0.3-1.2l2.3,0.2c-0.2,0.4-0.4,0.8-0.5,1.1h4.5
					v5.3h-8.2v0.7H534v1.4H523.3z M523.3,687.9v0.7h6.3v-0.7H523.3z M529.7,690.6v-0.8h-6.3v0.8H529.7z"/>
			</g>
		</g>
	</g>
	<g>
		<g>
			<path class="st32" d="M575.6,616.7c-1.9,0.9-3.9,1.8-5.5,2.5l-0.8-2.2c0.6-0.2,1.5-0.5,2.3-0.8v-4.9h-1.9v-2.1h1.9v-4h2v4h1.6
				v2.1h-1.6v4.1l1.5-0.6L575.6,616.7z M586.1,610.5c-0.5,3-1.5,5.4-2.8,7.3c1,0.9,2.2,1.6,3.6,2.1c-0.5,0.5-1.2,1.3-1.5,2
				c-1.4-0.6-2.6-1.4-3.6-2.4c-1,1-2.2,1.8-3.6,2.4c-0.3-0.6-0.9-1.4-1.3-1.9c1.3-0.5,2.5-1.3,3.5-2.3c-0.8-1.1-1.5-2.5-2-4
				c-0.2,2.8-1,5.9-3,8c-0.3-0.4-1.2-1.2-1.7-1.4c2.5-2.6,2.7-6.3,2.7-9.2v-5.7h10.2v2.1h-8.1v2.4h5.9l0.4-0.1L586.1,610.5z
				 M579.7,612.2c0.5,1.5,1.1,2.8,2,3.9c0.8-1.1,1.3-2.5,1.8-3.9H579.7z"/>
			<path class="st32" d="M604.9,616.4h-7.3v3c0,1.3-0.3,1.9-1.2,2.2c-0.9,0.3-2.2,0.4-4.1,0.4c-0.1-0.6-0.6-1.6-0.9-2.2
				c1.4,0.1,2.9,0.1,3.3,0.1c0.4,0,0.6-0.1,0.6-0.5v-3H588v-2.1h7.3v-2.2h-6V610h6v-2.2c-1.9,0.2-3.9,0.3-5.7,0.4
				c-0.1-0.6-0.3-1.5-0.6-1.9c4.4-0.2,9.5-0.7,12.5-1.5l1.6,1.8c-1.6,0.4-3.6,0.7-5.6,1v2.4h6.2v2.1h-6.2v2.2h7.3V616.4z"/>
			<path class="st32" d="M611,614.8v0.9h11.6c0,0,0,0.5-0.1,0.8c-0.2,3-0.5,4.4-1,4.9c-0.3,0.4-0.7,0.6-1.2,0.6
				c-0.4,0.1-1.2,0.1-2.1,0c0-0.6-0.2-1.4-0.5-1.9c0.6,0.1,1.2,0.1,1.5,0.1c0.2,0,0.4,0,0.6-0.2c0.2-0.3,0.4-1,0.6-2.8h-6.9v2.1h2.1
				v-1.7h2v3.4h-8.3v0.8h-2v-4.1h2v1.7h2.2v-2.1h-2.6v-11h4.2c0.1-0.5,0.3-1,0.3-1.4l2.6,0.2c-0.2,0.4-0.4,0.9-0.6,1.3h5.2v6.1H611
				v0.8h12.2v1.6H611z M611,607.8v0.8h7.3v-0.8H611z M618.3,610.9V610H611v0.9H618.3z"/>
		</g>
	</g>
	<g>
		<g>
			<path class="st32" d="M764.5,513.6v1.9h-4v1.2h-2.1v-1.2h-4.2v1.2H752v-1.2h-3.8v-1.9h3.8v-1h2.1v1h4.2v-1h2.1v1H764.5z
				 M757.4,517.3h6.9v3.6h-2.1V519h-11.7v1.9h-2v-3.6h6.8v-1.1h2.2V517.3z M753.3,524.7h9.3v5.1h-2.1v-0.7h-7.2v0.7h-2.1v-10h10.2
				v4.2h-8.1V524.7z M753.3,521.3v1.1h6v-1.1H753.3z M753.3,526.3v1.2h7.2v-1.2H753.3z"/>
			<path class="st32" d="M770.9,522.5v0.9h11.6c0,0,0,0.5-0.1,0.8c-0.2,3-0.5,4.4-1,4.9c-0.4,0.4-0.7,0.6-1.2,0.6
				c-0.4,0.1-1.2,0.1-2.1,0c0-0.6-0.2-1.4-0.5-1.9c0.6,0.1,1.2,0.1,1.5,0.1c0.2,0,0.4,0,0.6-0.2c0.2-0.3,0.4-1,0.6-2.8h-6.9v2.1h2.1
				v-1.7h2v3.4h-8.3v0.8h-2v-4.1h2v1.7h2.2V525h-2.6v-11h4.2c0.1-0.5,0.3-1,0.3-1.4l2.6,0.2c-0.2,0.4-0.4,0.9-0.6,1.3h5.2v6.1h-9.5
				v0.8h12.2v1.6H770.9z M770.9,515.5v0.8h7.3v-0.8H770.9z M778.2,518.5v-0.9h-7.3v0.9H778.2z"/>
		</g>
	</g>
	<g>
		<g>
			<path class="st32" d="M635.5,82.5c-0.3,0.5-0.6,0.9-1,1.2c2,2.2,4.9,3.9,7.6,4.8c-0.5,0.5-0.9,1.3-1.3,1.8
				c-1.2-0.5-2.5-1.2-3.8-1.9v0.8h-7.4v-0.9c-1.2,0.8-2.5,1.5-3.9,2c-0.2-0.5-0.8-1.2-1.2-1.7c3.1-1.1,6-3.3,7.5-5.2h1.1
				c-0.3-0.2-0.7-0.5-1-0.6c0.1-0.1,0.3-0.2,0.4-0.4h-2.2c0.3,0.5,0.6,1.1,0.8,1.5l-1.9,0.6c-0.2-0.6-0.6-1.4-1-2.2h-0.2
				c-0.5,0.9-1.1,1.6-1.7,2.2c-0.4-0.3-1.3-0.9-1.8-1.2c1.2-1.1,2.2-2.9,2.8-4.6l2.1,0.5c-0.1,0.4-0.3,0.8-0.5,1.1h4v1.5
				c0.8-0.9,1.4-2,1.8-3.1l2.2,0.5c-0.1,0.4-0.3,0.8-0.5,1.2h5.1v1.8h-3c0.4,0.5,0.7,1,0.9,1.5l-2,0.7c-0.2-0.6-0.8-1.4-1.3-2.2
				H635.5z M627.9,90.4h11v6h-2.2v-0.4H630v0.5h-2.1V90.4z M630,92.3V94h6.7v-1.7H630z M635.7,87.4c-0.9-0.7-1.7-1.4-2.4-2.1
				c-0.6,0.7-1.4,1.4-2.3,2.1H635.7z"/>
			<path class="st32" d="M643.1,94.4c1.2-1,1.9-2.6,2.3-4.2l2,0.6c-0.4,1.8-1.1,3.7-2.4,4.9L643.1,94.4z M650.6,83.5h-7v-2.1h7v-2.3
				h2.2v2.3h7.2v2.1h-7.2v2.3h6.1v2.1h-7.7c1.1,0.6,2.2,1.5,2.8,2.2l-1.6,1.4c-0.6-0.8-2.1-1.9-3.3-2.6l1.2-1h-5.6v-2.1h5.8V83.5z
				 M653.6,94.1c0.7,0,0.9-0.3,0.9-2c0.4,0.3,1.4,0.7,2,0.8c-0.2,2.5-0.8,3.2-2.7,3.2h-3c-2.4,0-2.9-0.6-2.9-2.6V90h2.2v3.5
				c0,0.6,0.1,0.6,1,0.6H653.6z M657.3,89.7c1.3,1.4,2.7,3.2,3.2,4.6l-2,1.1c-0.4-1.4-1.7-3.3-3-4.8L657.3,89.7z"/>
			<path class="st32" d="M666.4,89.1V90H678c0,0,0,0.5-0.1,0.8c-0.2,3-0.5,4.4-1,4.9c-0.4,0.4-0.7,0.6-1.2,0.6
				c-0.4,0.1-1.2,0.1-2.1,0c0-0.6-0.2-1.4-0.5-1.9c0.6,0.1,1.2,0.1,1.5,0.1c0.2,0,0.4,0,0.6-0.2c0.2-0.3,0.4-1,0.6-2.8h-6.9v2.1h2.1
				V92h2v3.4h-8.3v0.8h-2V92h2v1.7h2.2v-2.1h-2.6v-11h4.2c0.1-0.5,0.3-1,0.3-1.4l2.6,0.2c-0.2,0.4-0.4,0.9-0.6,1.3h5.2v6.1h-9.5v0.8
				h12.2v1.6H666.4z M666.4,82.1v0.8h7.3v-0.8H666.4z M673.7,85.2v-0.9h-7.3v0.9H673.7z"/>
		</g>
	</g>
	<g>
		<g>
			<path class="st32" d="M846.3,47.3v9.7h-2.1v-0.6h-1.8v5.1h-2.1v-5.1h-1.8V57h-2v-2.7l-1,1.4c-0.3-0.4-0.9-1.1-1.4-1.7v7.4H832
				v-6.1c-0.6,0.6-1.2,1.1-1.9,1.5c-0.2-0.6-0.7-1.7-1-2.1c1.8-1.1,3.6-3.1,4.7-5.2h-4v-2h2.2v-3.4h2.2v3.4h0.8l0.4-0.1l1.2,0.8
				c-0.5,1.3-1.1,2.6-1.9,3.8c0.6,0.4,1.5,1.2,2,1.7v-6.4h3.7v-3.1h2.1v3.1H846.3z M838.5,49.2v1.6h1.8v-1.6H838.5z M840.3,54.3
				v-1.6h-1.8v1.6H840.3z M842.4,49.2v1.6h1.8v-1.6H842.4z M844.2,54.3v-1.6h-1.8v1.6H844.2z"/>
			<path class="st32" d="M852.6,54.1V55h11.6c0,0,0,0.5-0.1,0.8c-0.2,3-0.5,4.4-1,4.9c-0.3,0.4-0.7,0.6-1.2,0.6
				c-0.4,0.1-1.2,0.1-2.1,0c0-0.6-0.2-1.4-0.5-1.9c0.6,0.1,1.2,0.1,1.5,0.1c0.2,0,0.4,0,0.6-0.2c0.2-0.3,0.4-1,0.6-2.8H855v2.1h2.1
				V57h2v3.4h-8.3v0.8h-2V57h2v1.7h2.2v-2.1h-2.6v-11h4.2c0.1-0.5,0.3-1,0.3-1.4l2.6,0.2c-0.2,0.4-0.4,0.9-0.6,1.3h5.2v6.1h-9.5v0.8
				h12.2v1.6H852.6z M852.6,47v0.8h7.3V47H852.6z M859.9,50.1v-0.9h-7.3v0.9H859.9z"/>
		</g>
	</g>
	<g>
		<g>
			<path class="st32" d="M421.1,109.4c-0.6,2.7-1.6,6.2-3.2,8.2c-0.6-0.4-1.6-0.9-2.1-1.1c1.5-1.9,2.4-5.1,2.8-7.5L421.1,109.4z
				 M425.8,104.7V119c0,1.3-0.3,2-1.1,2.3c-0.9,0.4-2.1,0.4-3.9,0.4c-0.1-0.6-0.5-1.7-0.9-2.3c1.2,0.1,2.6,0.1,3,0
				c0.4,0,0.6-0.1,0.6-0.5v-14.2H425.8z M430,108.7c1.5,2.6,3,6,3.5,8.3l-2.4,0.9c-0.4-2.2-1.8-5.7-3.2-8.4L430,108.7z"/>
			<path class="st32" d="M447.2,113h4.1v2.1h-4.1v6.6h-2.3v-6.6h-4c-0.2,2.4-1.2,4.9-4.7,6.7c-0.3-0.5-1.1-1.3-1.7-1.6
				c2.9-1.4,3.9-3.3,4.1-5.1h-4V113h4.1v-2.3h2.2v2.3h3.9v-2.4h2.3V113z M435.1,108.4c0.9,0,1.9,0,3-0.1c0.8-1.2,1.5-2.7,2-4
				l2.5,0.5c-0.6,1.1-1.3,2.3-2,3.4c1.8-0.1,3.8-0.1,5.8-0.2c-0.6-0.5-1.3-1.1-1.9-1.5l1.8-1.1c1.9,1.3,4.2,3.2,5.3,4.6l-1.9,1.3
				c-0.3-0.4-0.7-0.9-1.2-1.4c-4.7,0.3-9.6,0.5-12.9,0.6L435.1,108.4z"/>
			<path class="st32" d="M462.9,113.6c1.2,3.1,3.4,5.1,7.2,6c-0.5,0.5-1.2,1.5-1.5,2.1c-3.5-1-5.7-2.9-7.1-5.9
				c-1,2.4-3.1,4.6-7.4,5.9c-0.2-0.6-0.9-1.5-1.3-2c4.7-1.4,6.4-3.8,7-6.2h-6v-2.2h6.3c0-0.2,0-0.4,0-0.5V108h-6.8v-2.3h16.3v2.3
				h-7.2v2.8v0.5h6.7v2.2H462.9z"/>
			<path class="st32" d="M476,114.4v0.9h11.6c0,0,0,0.5-0.1,0.8c-0.2,3-0.5,4.4-1,4.9c-0.4,0.4-0.7,0.6-1.2,0.6
				c-0.4,0.1-1.2,0.1-2.1,0c0-0.6-0.2-1.4-0.5-1.9c0.6,0.1,1.2,0.1,1.5,0.1c0.2,0,0.4,0,0.6-0.2c0.2-0.3,0.4-1,0.6-2.8h-6.9v2.1h2.1
				v-1.7h2v3.4h-8.3v0.8h-2v-4.1h2v1.7h2.2v-2.1h-2.6v-11h4.2c0.1-0.5,0.3-1,0.3-1.4l2.6,0.2c-0.2,0.4-0.4,0.9-0.6,1.3h5.2v6.1H476
				v0.8h12.2v1.6H476z M476,107.4v0.8h7.3v-0.8H476z M483.3,110.5v-0.9H476v0.9H483.3z"/>
		</g>
	</g>
	<g>
		<path class="st33" d="M171.2,296H30.7c-3.8,0-6.9-3.1-6.9-6.9v-29.7c0-3.8,3.1-6.9,6.9-6.9h140.4c3.8,0,6.9,3.1,6.9,6.9v29.7
			C178.1,292.9,175,296,171.2,296z"/>
		<g>
			<g>
				<path class="st4" d="M60.6,283.5c0,1.2,0.1,3,0.3,3.7h-4.4c0.1-0.7,0.2-2.4,0.2-3.7v-9.2c-2.9,1.5-6.4,2.9-9.6,3.8l-2-3.4
					c4.9-1.1,9.6-3.1,12.7-5.1c2.8-1.8,5.7-4.3,7.3-6.3l3,2.7c-2.1,2.1-4.6,4.2-7.4,6V283.5z"/>
				<path class="st4" d="M72.7,284.9c2.5-1.7,4-4.3,4.8-6.7c0.8-2.4,0.8-7.7,0.8-11.1c0-1.1-0.1-1.9-0.3-2.5h4.1
					c0,0.1-0.2,1.4-0.2,2.5c0,3.3-0.1,9.2-0.8,12c-0.8,3.2-2.6,5.9-5,8L72.7,284.9z M85.6,285.3c0.1-0.5,0.2-1.3,0.2-2.1v-16.3
					c0-1.3-0.2-2.3-0.2-2.4h4.2c0,0.1-0.2,1.2-0.2,2.4v14.6c2.3-1,5-3.2,6.9-5.9l2.2,3.1c-2.3,3-6.4,6-9.5,7.6
					c-0.6,0.3-0.9,0.6-1.2,0.8L85.6,285.3z"/>
				<path class="st4" d="M124.5,269.5c-0.1,0.5-0.2,1.2-0.2,1.5c-0.1,3-0.4,10.8-1.7,13.7c-0.6,1.4-1.7,2.2-3.6,2.2
					c-1.6,0-3.3-0.1-4.6-0.2l-0.4-3.8c1.4,0.3,2.8,0.4,3.9,0.4c0.9,0,1.3-0.3,1.6-1c0.8-1.8,1.2-7.4,1.2-10.4h-6.3
					c-1,7.4-3.7,11.8-8.7,15.3l-3.2-2.6c1.2-0.6,2.5-1.6,3.7-2.7c2.6-2.6,4-5.7,4.6-10H107c-1,0-2.5,0-3.7,0.1v-3.7
					c1.2,0.1,2.6,0.2,3.7,0.2h4c0-0.8,0.1-1.6,0.1-2.4c0-0.6-0.1-1.9-0.2-2.6h4.1c-0.1,0.6-0.1,1.8-0.2,2.5c0,0.9-0.1,1.7-0.1,2.5
					h5.3c0.7,0,1.4-0.1,2.1-0.2L124.5,269.5z"/>
				<path class="st4" d="M138,277.3v1.3h17.6c0,0,0,0.8-0.1,1.2c-0.4,4.6-0.8,6.7-1.5,7.4c-0.5,0.6-1.1,0.8-1.9,1
					c-0.7,0.1-1.8,0.1-3.1,0.1c0-0.9-0.4-2.1-0.8-2.9c1,0.1,1.9,0.1,2.3,0.1c0.4,0,0.6,0,0.8-0.3c0.4-0.4,0.7-1.5,0.9-4.2h-10.6v3.2
					h3.2v-2.6h3.1v5.1h-12.7v1.2h-3v-6.3h3v2.5h3.3v-3.2h-3.9v-16.8h6.3c0.2-0.8,0.4-1.6,0.5-2.2l4,0.3c-0.3,0.7-0.6,1.3-0.9,1.9
					h7.8v9.3H138v1.3h18.6v2.5H138z M138,266.6v1.3h11.1v-1.3H138z M149.1,271.3v-1.4H138v1.4H149.1z"/>
			</g>
		</g>
		<line class="st34" x1="171" y1="276.9" x2="206.4" y2="254.2"/>
	</g>
	<g>
		<path class="st35" d="M304,547.2H36.3c-3.9,0-7-3.1-7-7v-20.2c0-3.9,3.1-7,7-7H304c3.9,0,7,3.1,7,7v20.2
			C311.1,544.1,307.9,547.2,304,547.2z"/>
		<g>
			<path class="st4" d="M45.4,538.9c1-1,1.7-2.5,2.1-3.9l2,0.7c-0.4,1.6-1.1,3.3-2.2,4.4L45.4,538.9z M50.6,532v0.9h12.8
				c0,0,0,0.5-0.1,0.8c-0.3,3.6-0.5,5.1-1.1,5.7c-0.4,0.4-0.8,0.6-1.4,0.7c-0.5,0.1-1.3,0.1-2.3,0c0-0.6-0.3-1.4-0.6-1.9
				c0.7,0.1,1.4,0.1,1.7,0.1c0.3,0,0.5,0,0.6-0.2c0.3-0.3,0.5-1.2,0.7-3.5H48.3v-11.7H53c0.2-0.5,0.3-1.1,0.4-1.6l2.8,0.2
				c-0.2,0.5-0.4,1-0.7,1.4h5.6v6.6H50.6v0.9h13.3v1.6H50.6z M52.3,535.5c0.3,1.2,0.5,2.7,0.5,3.7l-2.1,0.3c0.1-1-0.1-2.5-0.4-3.7
				L52.3,535.5z M50.6,524.6v0.9h8.2v-0.9H50.6z M58.8,527.9v-0.9h-8.2v0.9H58.8z M55.4,535.3c0.4,1,0.9,2.4,1,3.3l-1.9,0.5
				c-0.1-0.9-0.5-2.3-0.9-3.4L55.4,535.3z M58.3,534.8c0.5,0.8,1.1,1.9,1.3,2.6l-1.8,0.7c-0.2-0.7-0.7-1.8-1.2-2.7L58.3,534.8z"/>
			<path class="st4" d="M75,537.1c0,1.3-0.3,2-1.1,2.4c-0.8,0.4-2.1,0.4-3.9,0.4c-0.1-0.7-0.4-1.7-0.8-2.4c1.2,0.1,2.5,0.1,2.9,0.1
				c0.4,0,0.5-0.1,0.5-0.5v-3.6c-1.9,1.1-3.9,2.2-5.5,3.1l-0.9-2.2c1.6-0.7,4-2,6.4-3.2v-6.4h-5.6v-2.3h8V537.1z M69,526.2
				c0.9,1,2,2.4,2.6,3.3l-2,1.3c-0.5-0.9-1.7-2.4-2.6-3.5L69,526.2z M84.2,537.1c0,1.4-0.3,2-1.2,2.4c-0.9,0.4-2.2,0.4-4.1,0.4
				c-0.1-0.7-0.5-1.8-0.8-2.4c1.2,0.1,2.7,0.1,3.1,0.1c0.4,0,0.5-0.1,0.5-0.5v-3.9c-1.8,1.1-3.7,2.1-5.2,3l-1.2-2.2
				c1.6-0.7,4-1.9,6.4-3.1v-6H76v-2.3h8.3V537.1z M77.9,526.1c1,1,2.2,2.4,2.8,3.2l-1.9,1.4c-0.6-0.9-1.8-2.4-2.7-3.5L77.9,526.1z"
				/>
			<path class="st4" d="M104.9,525.8c-0.3,0.3-0.5,0.6-0.7,0.8c-1.4,2.3-4,5.5-6.8,7.8c1.1,1.1,2.3,2.4,3.1,3.4l-2.3,1.9
				c-0.8-1.1-2.5-3-3.8-4.3c-1.2-1.2-3.2-3-4.4-3.8l2.1-1.7c0.8,0.6,2.1,1.7,3.4,2.8c2.3-1.8,4.1-4.1,5.1-5.8H89.9
				c-0.8,0-1.9,0.1-2.3,0.1v-2.8c0.5,0.1,1.6,0.2,2.3,0.2H101c0.8,0,1.4-0.1,1.9-0.2L104.9,525.8z"/>
			<path class="st4" d="M112,523c0,0.4-0.1,0.9-0.1,1.5v6.8c0,0.5,0,1.3,0.1,1.7h-3c0-0.4,0.1-1.2,0.1-1.8v-6.7c0-0.4,0-1.1-0.1-1.5
				H112z M121.2,522.9c0,0.6-0.1,1.2-0.1,2v4c0,4.3-0.8,6.1-2.3,7.8c-1.3,1.5-3.4,2.4-4.9,2.9l-2.1-2.2c2-0.5,3.7-1.2,4.9-2.5
				c1.4-1.5,1.6-3,1.6-6.1v-3.8c0-0.8,0-1.4-0.1-2H121.2z"/>
			<path class="st4" d="M133.6,533.9c3.4-2,6-5.1,7.3-7.8l1.6,2.8c-1.5,2.7-4.2,5.5-7.4,7.4c-2,1.2-4.6,2.3-7.4,2.8l-1.7-2.6
				C129.1,536.1,131.7,535,133.6,533.9z M133.6,527.4l-2,2.1c-1-1.1-3.5-3.3-5-4.3l1.9-2C129.8,524.1,132.4,526.2,133.6,527.4z"/>
			<path class="st4" d="M161.2,525.6c-0.2,0.4-0.5,0.9-0.7,1.4c-0.5,1.5-1.4,3.6-2.8,5.5c0.7,0.5,1.4,0.9,1.9,1.3l-1.8,2.3
				c-0.5-0.4-1.1-0.9-1.9-1.4c-1.8,1.9-4.1,3.7-7.4,5l-2.3-2c3.5-1.1,5.8-2.8,7.5-4.5c-1.4-0.9-2.7-1.7-3.7-2.3l1.7-1.9
				c1.1,0.5,2.4,1.3,3.8,2.1c1-1.4,1.8-3.1,2.1-4.3h-5.7c-1.4,1.9-3.3,3.8-5.3,5.2l-2.2-1.7c3.5-2.2,5.4-4.9,6.4-6.6
				c0.3-0.5,0.7-1.4,0.9-2.1l2.9,0.9c-0.5,0.7-1,1.6-1.2,2l0,0h4.1c0.6,0,1.3-0.1,1.7-0.2L161.2,525.6z"/>
			<path class="st4" d="M163.6,529.1c0.7,0.1,2.2,0.1,3.2,0.1h10.7c0.9,0,1.8-0.1,2.3-0.1v3.1c-0.5,0-1.5-0.1-2.3-0.1h-10.7
				c-1.1,0-2.5,0-3.2,0.1V529.1z"/>
			<path class="st4" d="M196.6,536.8l-1.1,2.5c-2.7-1.1-9-2.5-12.2-3l1-2.5C187.7,534.3,193.8,535.8,196.6,536.8z M195.7,530.5
				l-1,2.5c-2.3-0.9-7.4-2-10.4-2.5l0.9-2.4C188.1,528.6,193.2,529.7,195.7,530.5z M197.1,525.1l-1,2.5c-2.3-0.9-8-2.1-10.8-2.5
				l0.9-2.4C188.8,523,194.6,524.2,197.1,525.1z"/>
			<path class="st4" d="M215.1,527.1c0.9,0,1.8-0.1,2.2-0.1v2.7c-0.4,0-1.4-0.1-2.2-0.1h-4.5c-0.1,4-1.4,7.3-5.7,9.9l-2.5-1.8
				c3.9-1.8,5.3-4.7,5.4-8h-5.1c-0.9,0-1.7,0.1-2.3,0.1V527c0.6,0.1,1.4,0.1,2.2,0.1h5.2v-2.2c0-0.7-0.1-1.7-0.3-2.3h3.2
				c-0.1,0.6-0.2,1.7-0.2,2.4v2.2H215.1z"/>
			<path class="st4" d="M218.6,537.6c1.8-1.2,2.8-3.1,3.4-4.8c0.6-1.7,0.6-5.5,0.6-7.9c0-0.8-0.1-1.3-0.2-1.8h2.9
				c0,0.1-0.1,1-0.1,1.8c0,2.4-0.1,6.6-0.6,8.6c-0.6,2.3-1.8,4.2-3.6,5.7L218.6,537.6z M227.8,537.9c0.1-0.4,0.2-0.9,0.2-1.5v-11.7
				c0-0.9-0.1-1.7-0.2-1.7h3c0,0.1-0.1,0.8-0.1,1.7v10.5c1.6-0.7,3.6-2.3,4.9-4.2l1.5,2.2c-1.7,2.2-4.5,4.3-6.8,5.5
				c-0.4,0.2-0.6,0.4-0.9,0.6L227.8,537.9z"/>
			<path class="st4" d="M249.2,536.9c0.8-0.1,1.3-0.2,1.8-0.3c2.5-0.6,4.5-2.4,4.5-5.3c0-2.7-1.5-4.8-4.1-5.2
				c-0.3,1.7-0.6,3.5-1.2,5.4c-1.2,4-2.9,6.4-5.1,6.4c-2.2,0-4-2.4-4-5.8c0-4.6,4-8.5,9.1-8.5c4.9,0,8,3.4,8,7.7
				c0,4.2-2.6,7.1-7.6,7.9L249.2,536.9z M247.6,530.9c0.5-1.5,0.8-3.2,1.1-4.8c-3.3,0.7-5,3.6-5,5.7c0,2,0.8,3,1.5,3
				C246,534.8,246.8,533.5,247.6,530.9z"/>
			<path class="st4" d="M264.9,522.4c-0.3,1-0.7,3-0.8,4.1c0.9-1.5,2.7-3.2,4.9-3.2c2.8,0,4.9,2.7,4.9,7.1c0,5.6-3.4,8.3-8.7,9.2
				l-1.5-2.3c4.4-0.7,7.5-2.1,7.5-6.9c0-3.1-1-4.8-2.7-4.8c-2.3,0-4.4,3.5-4.5,6.1c0,0.5,0,1.2,0.1,2.1l-2.5,0.2
				c-0.1-0.8-0.2-2-0.2-3.3c0-1.8,0.3-4.3,0.6-6.3c0.1-0.7,0.1-1.5,0.2-2.1L264.9,522.4z"/>
			<path class="st4" d="M281,523.2c-0.2,0.4-0.4,1.4-0.5,1.8c-0.3,1.3-0.9,5.7-0.9,7.7c0,0.4,0,0.9,0.1,1.3c0.3-0.7,0.6-1.4,0.9-2
				l1.2,1c-0.6,1.6-1.2,3.6-1.4,4.7c-0.1,0.3-0.1,0.7-0.1,0.9c0,0.2,0,0.6,0,0.8l-2.2,0.1c-0.4-1.4-0.8-3.6-0.8-6.3
				c0-3,0.6-6.7,0.8-8.3c0.1-0.6,0.2-1.3,0.2-1.9L281,523.2z M293.6,528.4c-0.9,0.1-2,0.2-3.1,0.3c0,1.9,0.1,3.5,0.2,4.8
				c1.7,0.7,2.9,1.7,3.8,2.6l-1.3,2.1c-0.8-0.8-1.6-1.4-2.4-2c-0.1,1.9-1.2,3.2-3.9,3.2c-2.7,0-4.4-1.2-4.4-3.2c0-2,1.7-3.4,4.4-3.4
				c0.4,0,0.9,0,1.3,0.1c-0.1-1.2-0.1-2.6-0.1-4c-0.5,0-0.9,0-1.4,0c-1.2,0-2.3,0-3.5-0.1l0-2.4c1.1,0.1,2.3,0.2,3.5,0.2
				c0.5,0,0.9,0,1.4,0c0-1,0-1.8,0-2.2c0-0.3-0.1-0.9-0.1-1.3h2.8c-0.1,0.4-0.1,0.8-0.1,1.3c0,0.4-0.1,1.2-0.1,2.1
				c1.1-0.1,2.1-0.3,3.1-0.5V528.4z M288.3,534.9c-0.5-0.1-1-0.2-1.6-0.2c-1.1,0-1.9,0.5-1.9,1.2c0,0.8,0.8,1.2,1.9,1.2
				c1.2,0,1.6-0.6,1.6-1.8V534.9z M292,525.4c-0.3-0.9-0.6-2-1-2.8l1.4-0.4c0.4,0.8,0.8,2,1.1,2.7L292,525.4z M294.1,524.7
				c-0.3-0.9-0.7-1.9-1.1-2.7l1.4-0.4c0.4,0.8,0.8,2,1.1,2.7L294.1,524.7z"/>
		</g>
		<line class="st36" x1="304.8" y1="529.8" x2="400" y2="532.9"/>
	</g>
	<g>
		<path class="st37" d="M328,747.2H89.2c-3.9,0-7-3.1-7-7v-20.2c0-3.9,3.1-7,7-7H328c3.9,0,7,3.1,7,7v20.2
			C335,744,331.9,747.2,328,747.2z"/>
		<g>
			<path class="st4" d="M113.7,736.4c2,0.7,4.2,1.5,5.6,2.1l-2,1.6c-1.3-0.7-3.6-1.6-5.7-2.4l1.4-1.3H107l1.9,1.3
				c-1.6,0.9-4.1,1.9-6,2.4c-0.4-0.5-1.1-1.2-1.6-1.6c1.9-0.4,4.3-1.3,5.5-2h-5.4v-2H119v2H113.7z M108.9,724.8h-7v-2h7v-1.4h2.5
				v1.4h7.3v2h-7.3v0.8h5.1v8h-12.3v-8h4.7V724.8z M114,727h-7.5v0.8h7.5V727z M114,729.2h-7.5v0.8h7.5V729.2z M114,731.4h-7.5v0.9
				h7.5V731.4z"/>
			<path class="st4" d="M128.4,736.2c-2.3,0.6-4.7,1.3-6.6,1.8l-0.4-2.3c0.7-0.2,1.5-0.4,2.4-0.6v-4.8h-2.2v-2.2h2.2v-3.5h-2.3v-2.2
				h6.9v2.2H126v3.5h2v2.2h-2v4.2c0.7-0.2,1.4-0.4,2.1-0.6L128.4,736.2z M136.2,731.9c1,2.1,2.7,4.1,4.3,5.3
				c-0.5,0.4-1.3,1.3-1.7,1.9c-1.3-1.1-2.5-2.8-3.4-4.7v5.8h-2.3v-5.7c-1.2,2-2.7,3.7-4.4,4.9c-0.4-0.6-1.1-1.4-1.6-1.8
				c2-1.1,3.9-3.3,5-5.5h-3.8v-2.1h4.7V727h-2c-0.3,0.9-0.7,1.7-1.2,2.4c-0.4-0.3-1.3-0.9-1.9-1.2c1-1.4,1.6-3.6,1.9-5.8l2.2,0.4
				c-0.1,0.7-0.2,1.4-0.4,2.1h1.4v-3.4h2.3v3.4h3.8v2.1h-3.8v2.7h4.7v2.1H136.2z"/>
			<path class="st4" d="M147,732.2v1h12.6c0,0,0,0.6-0.1,0.9c-0.3,3.3-0.5,4.8-1.1,5.3c-0.4,0.4-0.8,0.6-1.3,0.7
				c-0.5,0.1-1.3,0.1-2.2,0c0-0.6-0.3-1.5-0.6-2c0.7,0.1,1.3,0.1,1.6,0.1c0.3,0,0.4,0,0.6-0.2c0.3-0.3,0.5-1.1,0.6-3h-7.5v2.3h2.3
				v-1.9h2.2v3.7h-9v0.9h-2.2v-4.5h2.2v1.8h2.4v-2.3h-2.8v-12h4.5c0.2-0.5,0.3-1.1,0.4-1.6l2.8,0.2c-0.2,0.5-0.4,0.9-0.7,1.4h5.6
				v6.6H147v0.9h13.3v1.8H147z M147,724.5v0.9h7.9v-0.9H147z M154.9,727.9v-1H147v1H154.9z"/>
			<path class="st4" d="M168,728.2c1.4,0,2.6,1.2,2.6,2.6s-1.2,2.6-2.6,2.6c-1.4,0-2.6-1.2-2.6-2.6S166.6,728.2,168,728.2z"/>
			<path class="st4" d="M184.7,726.8c-0.9,5.4-3.1,9.5-5.9,11.6c-0.4-0.6-1.4-1.5-2-1.9c2.3-1.6,4.1-4.3,5-7.8h-4.3v-2.4h5.2
				l0.4-0.1L184.7,726.8z M195.3,726.1c-1.6,1.7-3.6,3.6-5.2,4.8c1.4,2.4,3.3,4.3,5.8,5.5c-0.6,0.5-1.4,1.5-1.8,2.2
				c-2.9-1.6-4.9-4.3-6.4-7.5v5.9c0,1.4-0.3,2.2-1.1,2.6c-0.9,0.4-2.2,0.5-4,0.5c-0.1-0.8-0.6-2-0.9-2.7c1.3,0.1,2.6,0,3,0
				c0.4,0,0.5-0.1,0.5-0.5v-15.6h2.5v3.5c0.4,1.4,0.8,2.8,1.4,4c1.4-1.3,3-3,4-4.4L195.3,726.1z"/>
			<path class="st4" d="M205.7,729c0,0,0,0.6,0,0.9c-0.2,6.1-0.4,8.5-1,9.2c-0.4,0.5-0.8,0.7-1.4,0.8c-0.5,0.1-1.3,0.1-2.1,0.1
				c0-0.7-0.3-1.6-0.6-2.2c0.6,0.1,1.2,0.1,1.5,0.1c0.3,0,0.4-0.1,0.6-0.3c0.3-0.4,0.5-2.1,0.7-6.5h-1.7c-0.3,3.5-1,6.7-2.6,9
				c-0.4-0.6-1.1-1.3-1.7-1.7c2-2.7,2.2-7.1,2.3-11.6h-1.9v-2.2h3.3v-3.2h2.3v3.2h2.6v1.2c0.9-1.3,1.7-2.9,2.1-4.5l2.2,0.5
				c-0.2,0.6-0.4,1.3-0.7,1.9h6.5v2.1h-7.5c-0.5,0.9-1.1,1.7-1.6,2.4c-0.4-0.4-1.3-1-1.9-1.3l0.2-0.2h-3.2c0,0.7,0,1.4-0.1,2.2
				H205.7z M212.6,734.2c0.8,1.8,2.1,3.3,3.9,4.1c-0.5,0.4-1.2,1.2-1.5,1.8c-1.5-0.8-2.7-2.2-3.6-3.9c-0.8,1.4-2.1,2.8-4.3,3.9
				c-0.3-0.5-1-1.2-1.5-1.6c2.8-1.2,3.8-2.8,4.2-4.3h-3.6V732h3.8V730h-0.9c-0.4,0.7-0.8,1.3-1.2,1.8c-0.4-0.4-1.3-0.9-1.8-1.2
				c1-1.1,1.8-2.8,2.2-4.5l2.1,0.5c-0.1,0.5-0.3,0.9-0.4,1.4h5.6v2.1h-3.3v2.1h3.6v2.1H212.6z"/>
			<path class="st4" d="M229.7,732.2v1.2h6.3v6.5h-2.2v-0.8h-4.1v0.9h-2.2v-12.8h-1.1V725l-1.3,1.5c-0.5-0.9-1.5-2.2-2.5-3.1
				c-0.6,1.1-1.5,2.3-2.6,3.4h1.7v-1.7h1.9v1.7h2.1v6.9h-4.5v2.9c0.7-0.2,1.4-0.3,2.1-0.5c-0.3-0.5-0.5-0.9-0.8-1.4l1.9-0.8
				c1,1.4,1.9,3.3,2.3,4.6l-2,0.9c-0.1-0.5-0.3-1-0.5-1.6c-2,0.6-4,1.1-5.6,1.6l-0.6-2.2c0.4-0.1,0.8-0.1,1.2-0.2v-9.4l-0.1,0.1
				c-0.3-0.5-1-1.2-1.5-1.5c1.8-1.4,3-3.3,3.7-4.8h2.1c1.1,0.8,2.3,2,3,3v-1h3.8v-2.1h2.3v2.1h4v3.8h-1.3v5H229.7z M221.3,728.5v1
				h2.5v-1H221.3z M223.8,732v-1h-2.5v1H223.8z M228.6,725.4v1.4h5.7v-1.4H228.6z M233,728.7h-3.2v1.6h3.2V728.7z M229.7,735.4v1.7
				h4.1v-1.7H229.7z"/>
			<path class="st4" d="M256.9,724.3v2.1h-18.1v-2.1h4.3c-0.4-0.7-0.9-1.5-1.5-2.2l2.3-0.8c0.7,0.8,1.5,1.8,1.9,2.6l-1.1,0.4h5.6
				c0.6-0.9,1.2-2.1,1.6-3l2.6,0.8c-0.5,0.8-1,1.6-1.5,2.3H256.9z M247.8,737.7c0,1-0.2,1.6-0.9,1.9c-0.6,0.3-1.6,0.4-2.8,0.4
				c-0.1-0.6-0.5-1.5-0.8-2c0.7,0,1.5,0,1.8,0c0.2,0,0.3-0.1,0.3-0.3v-1.8h-3.3v4h-2.3v-12.1h7.9V737.7z M242.1,729.9v1.2h3.3v-1.2
				H242.1z M245.5,734.2v-1.3h-3.3v1.3H245.5z M251.7,736.2h-2.2v-8.2h2.2V736.2z M253.5,727.5h2.3v9.9c0,1.2-0.2,1.8-1,2.1
				c-0.8,0.4-1.8,0.4-3.3,0.4c-0.1-0.6-0.5-1.6-0.9-2.2c1,0,2.1,0,2.4,0c0.3,0,0.4-0.1,0.4-0.4V727.5z"/>
			<path class="st4" d="M269.7,736.8c0.8-0.1,1.3-0.2,1.8-0.3c2.5-0.6,4.5-2.4,4.5-5.3c0-2.7-1.5-4.8-4.1-5.2
				c-0.3,1.7-0.6,3.5-1.2,5.4c-1.2,4-2.9,6.4-5.1,6.4c-2.2,0-4-2.4-4-5.8c0-4.6,4-8.5,9.1-8.5c4.9,0,8,3.4,8,7.7
				c0,4.2-2.6,7.1-7.6,7.9L269.7,736.8z M268.2,730.8c0.5-1.5,0.8-3.2,1.1-4.8c-3.3,0.7-5,3.6-5,5.7c0,2,0.8,3,1.5,3
				C266.6,734.7,267.4,733.5,268.2,730.8z"/>
			<path class="st4" d="M285.9,722.3c-0.3,1-0.7,3-0.8,4.1c0.9-1.5,2.7-3.2,4.9-3.2c2.8,0,4.9,2.7,4.9,7.1c0,5.6-3.4,8.3-8.7,9.2
				l-1.5-2.3c4.4-0.7,7.5-2.1,7.5-6.9c0-3.1-1-4.8-2.7-4.8c-2.3,0-4.4,3.5-4.5,6.1c0,0.5,0,1.2,0.1,2.1l-2.5,0.2
				c-0.1-0.8-0.2-2-0.2-3.3c0-1.8,0.3-4.3,0.6-6.3c0.1-0.7,0.1-1.5,0.2-2.1L285.9,722.3z"/>
			<path class="st4" d="M302.6,723.2c-0.2,0.4-0.4,1.4-0.5,1.8c-0.3,1.3-0.9,5.7-0.9,7.7c0,0.4,0,0.9,0.1,1.3c0.3-0.7,0.6-1.4,0.9-2
				l1.2,1c-0.6,1.6-1.2,3.6-1.4,4.7c-0.1,0.3-0.1,0.7-0.1,0.9c0,0.2,0,0.6,0,0.8l-2.2,0.1c-0.4-1.4-0.8-3.6-0.8-6.3
				c0-3,0.6-6.7,0.8-8.3c0.1-0.6,0.2-1.3,0.2-1.9L302.6,723.2z M315.1,728.3c-0.9,0.1-2,0.2-3.1,0.3c0,1.9,0.1,3.5,0.2,4.8
				c1.7,0.7,2.9,1.7,3.8,2.6l-1.3,2.1c-0.8-0.8-1.6-1.4-2.4-2c-0.1,1.9-1.2,3.2-3.9,3.2c-2.7,0-4.4-1.2-4.4-3.2c0-2,1.7-3.4,4.4-3.4
				c0.4,0,0.9,0,1.3,0.1c-0.1-1.2-0.1-2.6-0.1-4c-0.5,0-0.9,0-1.4,0c-1.2,0-2.3,0-3.5-0.1l0-2.4c1.1,0.1,2.3,0.2,3.5,0.2
				c0.5,0,0.9,0,1.4,0c0-1,0-1.8,0-2.2c0-0.3-0.1-0.9-0.1-1.3h2.8c-0.1,0.4-0.1,0.8-0.1,1.3c0,0.4-0.1,1.2-0.1,2.1
				c1.1-0.1,2.1-0.3,3.1-0.5V728.3z M309.8,734.9c-0.5-0.1-1-0.2-1.6-0.2c-1.1,0-1.9,0.5-1.9,1.2c0,0.8,0.8,1.2,1.9,1.2
				c1.2,0,1.6-0.6,1.6-1.8V734.9z M313.6,725.3c-0.3-0.9-0.6-2-1-2.8l1.4-0.4c0.4,0.8,0.8,2,1.1,2.7L313.6,725.3z M315.7,724.6
				c-0.3-0.9-0.7-1.9-1.1-2.7l1.4-0.4c0.4,0.8,0.8,2,1.1,2.7L315.7,724.6z"/>
		</g>
		<line class="st38" x1="329.7" y1="733.9" x2="388.4" y2="688.1"/>
	</g>
	<g>
		<circle class="st32" cx="357.9" cy="614.1" r="5"/>
		<g>
			<g>
				<path class="st32" d="M263.1,565.6l2.3,0.5c-0.1,0.5-0.3,1.2-0.4,1.6c-0.2,1.1-0.8,3.3-1.4,4.8c-0.6,1.6-1.5,3.4-2.4,4.6
					l-2.2-0.9c1-1.3,2-3,2.5-4.4C262.3,569.9,262.9,567.6,263.1,565.6z M267.2,566.1l2.1-0.7c0.7,1.2,1.8,3.7,2.4,5.2
					c0.6,1.4,1.4,4,1.9,5.6l-2.4,0.8c-0.4-1.9-1-3.9-1.7-5.7C268.9,569.6,267.9,567.3,267.2,566.1z M272.3,566.1l-1.3,0.6
					c-0.3-0.7-0.8-1.6-1.2-2.2l1.3-0.5C271.4,564.5,272,565.5,272.3,566.1z M274.2,565.3l-1.3,0.6c-0.3-0.7-0.8-1.6-1.3-2.2l1.3-0.5
					C273.3,563.8,273.9,564.8,274.2,565.3z"/>
				<path class="st32" d="M286.7,565.8c-0.1,0.2-0.4,0.7-0.6,1c-0.5,1.2-1.4,3-2.5,4.4c1.6,1.4,3.5,3.4,4.5,4.6l-1.8,1.6
					c-1-1.4-2.5-3.1-4-4.5c-1.7,1.8-3.8,3.5-6,4.5l-1.6-1.7c2.6-1,5.1-2.9,6.6-4.6c1.1-1.2,2-2.8,2.4-3.9h-5.4
					c-0.7,0-1.6,0.1-1.9,0.1v-2.3c0.4,0.1,1.4,0.1,1.9,0.1h5.6c0.7,0,1.3-0.1,1.7-0.2L286.7,565.8z"/>
				<path class="st32" d="M297.1,572c1.1-0.9,2.1-2.4,2.6-3.2c-0.5,0.1-2.7,0.5-4.9,1v4.2c0,1,0.3,1.3,2,1.3c1.7,0,3.5-0.2,5.1-0.5
					l-0.1,2.2c-1.3,0.2-3.2,0.4-5,0.4c-3.6,0-4.2-0.9-4.2-2.8v-4.4c-1.4,0.3-2.7,0.5-3.4,0.7l-0.4-2.1c0.8-0.1,2.2-0.3,3.7-0.6v-2.3
					c0-0.5,0-1.3-0.1-1.8h2.4c-0.1,0.5-0.1,1.3-0.1,1.8v1.9c2.3-0.4,4.6-0.9,5.3-1.1c0.4-0.1,0.8-0.2,1.1-0.4l1.5,1.2
					c-0.1,0.2-0.4,0.6-0.5,0.9c-0.7,1.3-2.2,3.5-3.3,4.7L297.1,572z"/>
				<path class="st32" d="M310.9,573c2.7-1.6,4.8-4.1,5.8-6.2l1.2,2.3c-1.2,2.2-3.3,4.4-5.9,5.9c-1.6,1-3.7,1.9-5.9,2.3l-1.3-2.1
					C307.3,574.8,309.4,574,310.9,573z M310.9,567.9l-1.6,1.7c-0.8-0.9-2.8-2.6-4-3.5l1.5-1.6C307.9,565.2,310,566.9,310.9,567.9z"
					/>
				<path class="st32" d="M332.1,566.4c-0.2,0.3-0.4,0.7-0.5,1.1c-0.4,1.2-1.2,2.8-2.2,4.4c0.6,0.4,1.1,0.7,1.5,1l-1.5,1.9
					c-0.4-0.3-0.9-0.7-1.5-1.1c-1.4,1.6-3.3,3-5.9,4l-1.9-1.6c2.8-0.9,4.6-2.2,6-3.6c-1.1-0.7-2.2-1.4-3-1.8l1.4-1.5
					c0.8,0.4,1.9,1,3,1.7c0.8-1.1,1.4-2.4,1.7-3.4h-4.6c-1.1,1.5-2.6,3-4.2,4.1l-1.7-1.3c2.8-1.7,4.3-3.9,5.1-5.3
					c0.2-0.4,0.6-1.1,0.7-1.7l2.3,0.7c-0.4,0.6-0.8,1.3-1,1.6l0,0h3.3c0.5,0,1-0.1,1.4-0.2L332.1,566.4z"/>
				<path class="st32" d="M334,569.2c0.6,0,1.7,0.1,2.6,0.1h8.6c0.7,0,1.5-0.1,1.9-0.1v2.5c-0.4,0-1.2-0.1-1.9-0.1h-8.6
					c-0.9,0-2,0-2.6,0.1V569.2z"/>
			</g>
		</g>
		<line class="st39" x1="328.5" y1="580.4" x2="355.2" y2="612.8"/>
	</g>
	<g>
		<path class="st40" d="M356.4,595.3h-6.6c-2.2,0-3.9-1.8-3.9-3.9v-6.6c0-2.2,1.8-3.9,3.9-3.9h6.6c2.2,0,3.9,1.8,3.9,3.9v6.6
			C360.3,593.5,358.5,595.3,356.4,595.3z"/>
		<g>
			<path class="st4" d="M350,593.2v-10.2h1.4v10.2H350z M350.7,589.3v-1.4h3.3c0.5,0,0.8-0.2,1.1-0.5c0.3-0.3,0.4-0.7,0.4-1.3
				c0-0.5-0.1-1-0.4-1.3c-0.3-0.3-0.7-0.5-1.1-0.5h-3.3v-1.4h3.2c0.6,0,1.2,0.1,1.6,0.4c0.5,0.3,0.8,0.6,1.1,1.1
				c0.3,0.5,0.4,1,0.4,1.6c0,0.6-0.1,1.2-0.4,1.6c-0.3,0.5-0.6,0.8-1.1,1.1c-0.5,0.3-1,0.4-1.6,0.4H350.7z"/>
		</g>
	</g>
	<g>
		<path class="st40" d="M363.9,577.3h-6.6c-2.2,0-3.9-1.8-3.9-3.9v-6.6c0-2.2,1.8-3.9,3.9-3.9h6.6c2.2,0,3.9,1.8,3.9,3.9v6.6
			C367.8,575.5,366,577.3,363.9,577.3z"/>
		<g>
			<path class="st4" d="M357.4,575.2V565h1.4v10.2H357.4z M358.2,571.3v-1.4h3.3c0.5,0,0.8-0.2,1.1-0.5c0.3-0.3,0.4-0.7,0.4-1.3
				c0-0.5-0.1-1-0.4-1.3c-0.3-0.3-0.7-0.5-1.1-0.5h-3.3V565h3.2c0.6,0,1.2,0.1,1.6,0.4c0.5,0.3,0.8,0.6,1.1,1.1
				c0.3,0.5,0.4,1,0.4,1.6c0,0.6-0.1,1.2-0.4,1.6c-0.3,0.5-0.6,0.8-1.1,1.1c-0.5,0.3-1,0.4-1.6,0.4H358.2z"/>
		</g>
	</g>
	<g>
		<path class="st40" d="M392.2,609.8h-6.6c-2.2,0-3.9-1.8-3.9-3.9v-6.6c0-2.2,1.8-3.9,3.9-3.9h6.6c2.2,0,3.9,1.8,3.9,3.9v6.6
			C396.1,608.1,394.3,609.8,392.2,609.8z"/>
		<g>
			<path class="st4" d="M385.7,607.8v-10.2h1.4v10.2H385.7z M386.5,603.8v-1.4h3.3c0.5,0,0.8-0.2,1.1-0.5c0.3-0.3,0.4-0.7,0.4-1.3
				c0-0.5-0.1-1-0.4-1.3c-0.3-0.3-0.7-0.5-1.1-0.5h-3.3v-1.4h3.2c0.6,0,1.2,0.1,1.6,0.4c0.5,0.3,0.8,0.6,1.1,1.1
				c0.3,0.5,0.4,1,0.4,1.6c0,0.6-0.1,1.2-0.4,1.6c-0.3,0.5-0.6,0.8-1.1,1.1c-0.5,0.3-1,0.4-1.6,0.4H386.5z"/>
		</g>
	</g>
</g>
</svg>
